<svg width="688" height="47" viewBox="0 0 688 47" fill="none" xmlns="http://www.w3.org/2000/svg">
<path d="M26.0343 8.87001L27.3646 3.61661C29.2109 3.12564 29.7795 2.88015 29.9039 2.38918C30.0779 1.70182 29.647 1.60362 22.4266 0.916264C22.107 2.97835 21.9463 3.813 21.4614 5.72779L20.6657 8.87001H15.753C14.5375 8.87001 13.7013 8.77181 12.6617 8.47723L12.5935 10.1465C13.4029 9.95014 14.1244 9.90105 15.4919 9.90105H20.4046L18.5522 17.2165H12.6771C11.3603 17.2165 10.271 17.1183 9.13003 16.8238L9.04942 18.5422C10.1752 18.2967 10.8967 18.2476 12.4161 18.2476H18.9495L14.8592 34.4005C13.751 32.9767 13.367 32.093 12.9766 29.8345C13.8791 27.8706 14.2921 26.8396 15.2922 24.0901C16.8471 23.5501 17.3651 23.3046 17.4645 22.9118C17.5267 22.6663 17.3863 22.4208 17.0059 22.3226C16.511 22.0771 16.1689 22.0281 10.6199 21.3407C10.4601 22.3717 10.3606 22.7645 10.1866 23.4519C9.57736 25.8576 7.928 30.571 6.56369 33.9587C4.86094 38.0828 3.50539 40.6359 0.828831 45.0055L1.33622 45.2019C6.42956 40.4886 9.42517 36.659 12.2615 31.2583C12.4294 37.3955 14.8406 41.2741 19.6994 43.2871C22.5918 44.4655 26.1131 44.76 38.3697 44.76C42.5227 44.76 45.3207 44.711 46.2572 44.6128C46.8268 44.5637 46.8898 44.5146 47.3029 43.4835C47.6528 42.5016 48.3822 41.4214 49.2643 40.5377C49.8942 39.8503 50.3234 39.5557 51.3842 38.9666L51.4961 38.5247C44.8899 39.2121 36.9402 39.6048 30.3054 39.6048C24.633 39.6048 21.7567 39.163 19.1931 37.8864L21.7542 27.7724H30.5161C30.7693 27.7724 30.9968 27.6742 31.0465 27.4778C31.0714 27.3796 30.995 27.2815 30.9052 27.036C29.6183 25.3176 29.198 24.7775 27.6961 23.1082C25.9939 24.6302 25.4644 25.1212 23.7373 26.7414H22.0153L24.1661 18.2476H33.08C33.3332 18.2476 33.5607 18.1494 33.598 18.0021C33.6228 17.9039 33.6095 17.7566 33.4442 17.6093C31.9672 15.8418 31.4837 15.3508 29.8681 13.7306C28.2166 15.2526 27.7501 15.6945 26.0986 17.2165H23.9207L25.7732 9.90105H35.2442C35.4974 9.90105 35.7248 9.80286 35.7621 9.65556C35.7994 9.50827 35.7737 9.41008 35.6208 9.21369C34.0559 7.59348 33.5724 7.10251 31.9062 5.4823C30.2795 6.90612 29.75 7.39709 28.1615 8.87001H26.0343ZM39.5617 4.45126C38.4475 4.45126 37.4087 4.35307 36.3691 4.05848L36.2885 5.77689C37.2499 5.5805 38.1357 5.4823 39.3006 5.4823H49.6832L46.948 16.2837H40.2627C38.0526 14.8108 37.3035 14.3689 34.8919 13.0924C34.3467 15.6454 34.0989 16.8238 33.7135 18.3458L31.8859 25.5631C31.5378 26.9378 31.4259 27.3796 31.0032 29.0489L30.1081 32.5839C29.3133 35.9226 29.9095 36.168 38.7727 36.168C44.4452 36.168 47.4831 35.9717 49.1144 35.5298C50.5306 35.137 51.4759 34.2042 51.7867 32.9767C52.0105 32.093 51.7794 31.4056 51.2462 31.111C49.8378 30.4728 49.8378 30.4728 49.9746 29.9327C49.9994 29.8345 50.074 29.5399 50.1486 29.2453L52.5306 21.4389L52.0365 21.3898C48.8599 27.1342 47.4901 29.3435 46.5075 30.4237C45.6005 31.4056 44.8541 31.5529 41.3089 31.5529C41.2076 31.5529 41.005 31.5529 40.7517 31.5529C39.2954 31.5038 38.2825 31.5038 37.7254 31.5038C35.9527 31.5038 35.7492 31.3074 36.0352 30.1782L39.2925 17.3147H46.687L46.2145 19.1804C46.0032 20.0151 46.2697 20.1624 47.8904 20.1624C50.828 20.1624 51.6623 19.8678 51.9606 18.6894C52.8291 14.8599 53.2384 13.0433 54.0093 9.99925L54.7677 7.00431C56.3216 6.26786 56.8138 5.92418 56.9257 5.4823C56.9754 5.28592 56.835 5.04043 56.4787 4.64765C55.0541 3.27293 54.5965 2.88015 53.0458 1.60362C51.4812 2.78196 51.0272 3.17473 49.4885 4.45126H39.5617Z" fill="white"/>
<path d="M108.131 11.2758C108.486 11.2758 108.764 11.1776 108.801 11.0303C108.826 10.9321 108.762 10.7848 108.648 10.6375C106.93 8.82091 106.396 8.32994 104.577 6.70973C102.143 8.72272 102.143 8.72272 100.238 10.2447H95.2243C97.8764 8.77181 98.1162 8.62452 103.164 5.08953C103.367 5.08953 103.519 5.08953 103.57 5.08953C104.988 5.08953 105.645 4.89314 105.757 4.45126C105.894 3.91119 104.498 3.22383 99.6142 1.30904C98.3839 3.56751 96.0821 6.85702 93.2997 10.2447H91.3245L93.1272 3.12564C94.7585 2.68376 95.2258 2.43828 95.3253 2.0455C95.4994 1.35814 94.8152 1.25995 88.5331 0.867168C88.1495 2.78196 87.9764 3.66571 87.504 5.5314L86.3104 10.2447H82.5626L84.3902 3.02745C86.009 2.63467 86.4764 2.38918 86.5883 1.94731C86.6504 1.70182 86.4976 1.50543 86.1679 1.40724C85.6605 1.21085 85.2678 1.16175 79.7454 0.768975C79.488 2.58557 79.3273 3.42022 78.7803 5.5805L77.5992 10.2447H65.5959C64.3297 10.2447 63.1008 10.0974 61.8204 9.75376L61.6767 11.5213C62.6763 11.374 63.866 11.2758 65.3348 11.2758H73.7422L73.2375 11.6685C74.1699 13.3869 74.3655 14.6144 74.3516 17.0692C74.3429 17.9039 74.382 18.1494 74.6877 18.5422H66.0778C64.8116 18.5422 63.8235 18.444 62.4924 18.1003L62.3487 19.8678C63.7784 19.6223 64.5505 19.5732 65.8167 19.5732H79.3394L78.2204 23.9919H67.6859C66.1158 23.9919 64.9883 23.8446 63.5435 23.5501L63.3998 25.3176C64.8676 25.1212 66.0574 25.023 67.4248 25.023H77.9594L76.7658 29.7363H61.5718C60.255 29.7363 59.3175 29.6381 57.7839 29.2944L57.5771 31.111C58.9054 30.8655 60.1965 30.7674 61.3107 30.7674H72.3517C69.6411 33.2713 68.1654 34.4987 65.6289 36.3153C61.3634 39.3594 57.4737 41.5196 52.5711 43.6799L52.7257 44.2691C58.0755 42.9435 60.7685 42.1088 64.1297 40.6359C68.1732 38.8684 71.0269 37.1991 75.7712 33.6641L75.0128 36.659C74.7269 37.7883 73.369 42.5507 72.5963 45.2019C72.385 46.0366 72.6009 46.1839 74.2722 46.1839C77.3617 46.1839 78.0698 45.9875 78.3309 44.9564C79.2979 40.5377 79.7455 38.7702 80.3423 36.4135L81.5855 31.5038C83.7623 36.7081 86.3084 39.6539 90.5861 41.9615C92.4265 42.8944 95.0522 43.9254 95.7106 43.9254C96.1158 43.9254 96.1789 43.8763 96.6941 43.0416C98.3029 40.4886 99.3495 39.5557 101.309 38.8193L101.483 38.1319C95.2513 37.7392 90.9924 36.7572 87.2611 34.8915C85.332 33.9096 84.0354 32.8294 82.4304 30.7674H101.828C102.233 30.7674 102.511 30.6692 102.561 30.4728C102.598 30.3255 102.534 30.1782 102.369 30.0309C100.677 28.3125 100.156 27.7724 98.2867 26.1522C96.3312 27.6742 95.7128 28.1161 93.6819 29.7363H82.0331L83.2266 25.023H98.7246C99.0791 25.023 99.3572 24.9248 99.4069 24.7284C99.4318 24.6302 99.3802 24.4338 99.2149 24.2865C97.65 22.6663 97.1541 22.2244 95.4124 20.7024C93.6461 22.0772 93.0784 22.519 91.2367 23.9919H83.4877L84.6066 19.5732H103.397C103.701 19.5732 103.979 19.475 104.016 19.3277C104.053 19.1804 103.977 19.0822 103.862 18.9349C102.221 17.2165 101.636 16.7256 99.8054 15.1544C97.9761 16.5783 97.3453 17.0692 95.4529 18.5422H87.552C89.1815 17.7075 89.1815 17.7075 94.1693 14.8108C94.3088 14.8599 94.4608 14.8599 94.5114 14.8599C95.8789 14.8599 96.5364 14.6635 96.6607 14.1725C96.7975 13.6324 96.7975 13.6324 90.8608 11.2758H108.131ZM90.3037 11.2758C88.8478 14.0252 87.5143 15.8909 85.1716 18.5422H77.1694C78.3946 17.9039 79.3017 16.9219 79.5752 15.8418C79.9855 14.2216 78.4224 12.9942 73.7422 11.2758H90.3037ZM68.6211 1.89821C69.9747 4.35307 70.4636 6.02237 70.4355 8.13355C70.3912 9.50827 70.7485 10.0974 71.6095 10.0974C73.0783 10.0974 75.222 8.23175 75.6323 6.61154C76.1296 4.64765 74.4776 3.37112 69.1257 1.50543L68.6211 1.89821Z" fill="white"/>
<path d="M110.055 23.7675C110.392 24.7214 110.72 25.2544 111.301 25.7033C111.918 26.2364 113.114 26.545 114.387 26.545C114.59 26.545 114.886 26.5169 115.356 26.4889C113.275 28.6492 110.825 30.7814 109.548 31.4828C108.502 32.0719 108.466 32.1 108.192 32.3805C107.99 32.605 107.825 32.9136 107.74 33.2503C107.406 34.5689 107.707 35.5508 108.431 35.5508C108.894 35.5508 109.204 35.3544 110.191 34.4286C113.166 31.595 115.554 30.1642 117.32 30.1642C117.927 30.1642 118.37 30.4728 118.51 30.9497C118.606 31.4828 118.601 31.8475 118.36 32.9136C116.043 34.1761 115.192 34.6811 114.334 35.3264C112.51 36.7011 111.438 38.0758 111.097 39.4225C110.763 40.7411 111.072 41.8072 112.001 42.4805C113.177 43.3222 115.053 43.6869 118.237 43.6869C120.841 43.6869 122.852 43.5186 124.001 43.21C124.716 43.0136 125.228 42.5928 125.356 42.0878C125.491 41.5547 125.278 41.0216 124.777 40.6008C124.298 40.208 123.638 39.9555 123.175 39.9555C122.915 39.9555 122.698 40.0117 121.874 40.2922C120.487 40.7411 118.239 41.0497 116.358 41.0497C113.406 41.0497 112.202 40.4325 112.543 39.0858C112.905 37.655 114.361 36.4766 117.884 34.7933C117.692 35.5508 117.564 35.9436 117.371 36.5889C117.022 37.6269 117.022 37.6269 117 37.7111C116.816 38.4405 117.194 38.8894 117.975 38.8894C118.583 38.8894 119.233 38.6089 119.578 38.16C119.83 37.8514 120.044 37.2342 120.392 35.8594C120.463 35.5789 120.478 35.5228 120.896 33.643C122.982 32.7172 125.872 31.8194 129.385 30.9778C130.274 30.7814 130.634 30.5008 130.776 29.9397C131.146 28.4808 129.139 26.3486 127.431 26.3486C127.142 26.3486 126.961 26.3767 126.491 26.5169C127.413 26.9939 127.827 27.5269 127.685 28.088C127.621 28.3405 127.384 28.593 126.915 28.8455C126.244 29.2103 125.052 29.7994 124.078 30.2203C121.543 31.3144 121.543 31.3144 120.98 31.595C120.94 30.8375 120.823 30.5008 120.546 30.108C120.095 29.4908 119.283 29.1542 118.328 29.1542C117.083 29.1542 115.869 29.4908 113.87 30.4167C114.41 29.8836 114.41 29.8836 115.907 28.3125C116.339 27.8636 116.656 27.5269 117.83 26.3205C120.245 25.9278 122.239 25.4789 124.183 24.8897C126.22 24.2725 126.82 23.9639 126.969 23.3747C127.153 22.6453 126.239 22.0281 124.966 22.0281C124.647 22.0281 124.365 22.1122 124.084 22.3086C122.901 23.0942 122.605 23.2344 119.809 24.1042C120.572 23.2625 121.271 22.5611 121.869 22.0281C122.308 21.6633 122.524 21.3828 122.581 21.1583C122.702 20.6814 122.345 20.2606 121.62 19.9239C120.736 19.5311 119.526 19.2786 118.513 19.2786C117.848 19.2786 117.537 19.3628 116.844 19.6994C118.401 20.0642 118.939 20.5692 118.697 21.5231C118.506 22.2806 117.731 23.6272 116.903 24.6092C115.71 24.8617 114.879 24.9458 113.953 24.9458C112.158 24.9458 111.368 24.6372 110.336 23.5711L110.055 23.7675Z" fill="white"/>
<path d="M145.497 42.0106H167.022L166.325 44.76C166.152 45.6438 166.419 45.7911 168.445 45.7911C170.116 45.7911 171.533 45.5947 172.064 45.3001C172.367 45.1037 172.593 44.8091 172.693 44.4164C172.705 44.3673 172.73 44.2691 172.742 44.22C174.476 35.9717 174.476 35.9717 181.762 7.2007C183.417 6.46425 183.96 6.12056 184.084 5.62959C184.146 5.38411 184.057 5.13862 183.739 4.79494C182.175 3.37112 181.679 2.92925 179.988 1.60362C178.285 2.92925 177.718 3.37112 175.939 4.79494H155.63C153.064 3.12564 152.277 2.63467 149.586 1.25995C148.273 7.44619 147.404 11.2758 145.714 17.953C143.252 27.6742 140.253 38.9175 138.595 44.4655C138.321 45.5456 138.638 45.6929 140.664 45.6929C142.386 45.6929 143.854 45.4965 144.271 45.251C144.624 45.0546 144.788 44.8091 144.925 44.2691L145.497 42.0106ZM173.549 16.2346H152.024L154.659 5.82598H176.184L173.549 16.2346ZM173.288 17.2656L170.59 27.9197H149.065L151.763 17.2656H173.288ZM170.329 28.9508L167.283 40.9796H145.758L148.804 28.9508H170.329Z" fill="white"/>
<path d="M203.625 11.8649L205.652 3.8621C207.334 3.42022 208.079 3.07654 208.191 2.63467C208.365 1.94731 207.503 1.75092 200.789 1.06356C200.494 3.02744 200.136 4.84404 199.489 7.39709L198.358 11.8649H195.218C193.901 11.8649 193.065 11.7667 191.734 11.4231L191.653 13.1415C192.868 12.9451 193.589 12.896 194.957 12.896H198.097L195.424 23.4519C192.198 24.1883 190.035 24.532 188.149 24.5811C188.25 29.9818 188.421 31.3074 189.028 31.3074C189.484 31.3074 189.886 30.7183 190.411 29.2453C193.04 28.2634 193.04 28.2634 194.342 27.7233L191.396 39.3594C191.246 39.9485 191.057 40.0958 190.449 40.0958C188.183 40.0467 187.385 39.9976 184.054 39.7521L183.854 40.3413C186.377 41.176 187.139 41.5687 187.661 42.3052C188.158 42.9435 188.264 43.9254 188.08 45.251C187.945 45.9875 187.97 46.0857 188.527 46.0857C188.831 46.0857 189.3 46.0366 189.768 45.9875C192.146 45.5947 193.852 44.8582 194.873 43.8272C195.604 43.1398 195.918 42.5016 196.416 40.7341C197.421 36.3644 197.421 36.3644 197.732 35.137L199.087 29.7854L200.344 25.023C204.159 23.1573 205.283 22.519 208.212 20.7515L208.146 20.2115C203.038 21.7826 203.038 21.7826 201.052 22.2244L203.415 12.896H209.847C210.252 12.896 210.479 12.7978 210.529 12.6014C210.554 12.5032 210.528 12.405 210.426 12.2086C209.343 10.6866 208.999 10.2447 207.751 8.77181C206.099 10.2938 206.099 10.2938 204.385 11.8649H203.625ZM218.174 3.813C219.818 3.32203 220.285 3.07654 220.397 2.63467C220.534 2.0946 219.836 1.84911 216.872 1.55453C216.137 1.45633 214.908 1.30904 213.325 1.16175C213.018 3.17473 212.844 4.05848 212.347 6.02237L209.637 16.7256C209.227 18.3458 209.445 19.0822 210.536 19.5732C211.437 20.0151 212.742 20.0642 220.896 20.0642C229.405 20.0642 232.278 19.9169 233.997 19.3277C235.16 18.9349 235.904 18.1985 236.19 17.0692C236.414 16.1855 236.184 15.6945 235.194 15.2035C234.661 14.909 234.52 14.6635 234.657 14.1234C234.682 14.0252 234.731 13.8288 234.794 13.5833L236.416 8.57542L235.985 8.47723C233.608 11.8649 232.865 12.7978 231.87 13.927C230.661 15.3017 230.358 15.4981 228.802 15.6454C228.08 15.6945 223.446 15.7927 220.357 15.7927C217.014 15.7927 215.862 15.7436 215.557 15.5472C215.278 15.449 215.289 15.2035 215.476 14.4671L216.346 11.0303C222.293 10.1465 228.212 8.77181 234.901 6.75883C235.573 6.90612 236.168 6.95522 236.725 6.95522C237.232 6.95522 237.699 6.70973 237.774 6.41515C237.91 5.87508 236.97 5.18772 232.423 2.1437C230.392 3.7639 227.866 5.13862 223.191 7.2007C220.803 8.23175 219.514 8.72272 216.694 9.65556L218.174 3.813ZM202.526 45.0055C202.29 45.9384 202.557 46.0857 204.127 46.0857C207.621 46.0857 208.064 45.9384 208.399 44.6128L208.835 42.8944H220.585L220.087 44.8582C219.902 45.7911 220.067 45.9384 221.738 45.9384C224.777 45.9384 225.612 45.6438 225.91 44.4655C227.113 39.1139 227.486 37.641 230.122 27.2324C231.903 26.3977 232.206 26.2013 232.293 25.8576C232.355 25.6121 232.266 25.3667 231.947 25.023C230.561 23.6974 230.116 23.2555 228.476 21.9299C226.962 23.1082 226.508 23.501 225.033 24.7284H213.992C211.782 23.2555 211.033 22.8136 208.558 21.5862C207.975 24.2865 207.454 26.545 206.211 31.4547C204.756 37.1991 204.171 39.3103 202.551 44.9073L202.526 45.0055ZM223.121 32.8785H211.371L213.174 25.7594H224.924L223.121 32.8785ZM222.86 33.9096L220.846 41.8633H209.096L211.11 33.9096H222.86Z" fill="white"/>
<path d="M246.823 46.2821C251.919 44.9564 254.384 44.0236 257.175 42.4034C262.579 39.2612 266.191 34.5969 267.609 28.9999C268.293 26.2995 268.272 24.5811 267.564 22.1753C267.676 21.7335 267.776 21.3407 267.825 21.1443C268.285 19.3277 269.245 16.1364 270.107 13.5342C271.866 13.387 272.74 13.3379 274.462 13.3379C277.703 13.3379 279.844 13.4851 282.643 13.8288C284.354 14.0743 285.089 14.1725 285.545 14.1725C286.608 14.1725 287.517 13.5833 287.741 12.6996C287.94 11.914 287.811 11.4231 287.289 10.883C286.258 9.75376 284.266 8.82091 282.899 8.82091C282.139 8.82091 281.608 8.91911 280.596 9.31188C278.688 10.0483 278.27 10.0974 271.081 10.6866C271.844 8.67362 272.057 8.23175 273.153 6.90612C273.732 6.21876 273.92 5.87508 274.045 5.38411C274.331 4.25487 273.618 3.46932 271.804 2.83106C270.118 2.29099 268.217 1.9964 266.293 1.9964C264.672 1.9964 263.964 2.19279 262.853 2.97835C265.096 3.32203 266.2 3.96029 266.737 5.04043C267.21 5.97328 267.065 7.54438 266.222 11.2758C262.678 11.6685 261.122 11.8158 259.021 12.1104C249.683 13.387 249.683 13.3869 248.163 13.3869C245.884 13.3869 244.437 12.5032 243.478 10.4902C243.226 10.883 243.114 11.1285 243.064 11.3249C242.803 12.3559 243.05 13.7797 243.652 15.2035C244.573 17.1674 245.818 18.2476 247.287 18.2476C247.743 18.2476 248.439 18.1003 248.831 17.953C253.114 16.0382 258.666 14.7126 265.652 13.927C265.267 15.6454 265.168 16.0382 264.869 17.2165C264.72 17.8057 264.621 18.1985 264.273 19.5732C263.029 18.8858 262.458 18.7385 261.395 18.7385C257.191 18.7385 253.37 22.0281 252.201 26.6432C251.045 31.2092 253.112 34.646 256.961 34.646C258.177 34.646 259.214 34.3514 260.325 33.7623C258.669 37.1009 256.982 39.163 254.018 41.4705C251.81 43.1889 249.802 44.3182 246.719 45.6929L246.823 46.2821ZM262.631 25.8576C261.947 28.558 260.384 30.1291 258.409 30.1291C256.18 30.1291 255.208 27.9688 255.991 24.8757C256.663 22.2244 258.755 20.1624 260.781 20.1624C262.857 20.1624 263.551 22.2244 262.631 25.8576Z" fill="white"/>
<path d="M283.921 46.1839C287.637 44.711 289.28 44.0236 291.212 42.9925C298.021 39.5067 303.961 34.4496 308.566 28.2634C312.479 23.01 314.711 18.3949 317.332 10.2447C316.27 16.0382 315.98 18.984 316.025 23.2064C316.119 29.6381 317.333 34.8424 319.745 38.9175C321.391 41.6178 324.814 45.3001 325.777 45.3001C326.03 45.3001 326.27 45.1528 326.597 44.6619C328.874 41.4705 330.286 40.2922 333.081 39.4575L333.256 38.9666C329.4 37.5919 327.306 36.4626 324.826 34.2533C320.529 30.4237 318.302 25.4158 317.828 18.6894C317.543 14.6144 317.878 10.4902 318.711 7.2007C318.81 6.80792 318.96 6.21876 319.197 5.4823C321.017 4.89314 321.548 4.59855 321.647 4.20578C321.796 3.61661 320.846 3.37112 317.349 2.97835C316.501 2.92925 315.12 2.78196 313.397 2.58557C313.175 3.86209 313.089 4.40217 312.84 5.38411C312.281 7.59348 311.12 11.1776 310.157 13.7797C307.682 20.5551 304.567 26.054 300.325 31.4056C295.555 37.4446 291.279 41.1269 283.792 45.6929L283.921 46.1839Z" fill="white"/>
<path d="M346.815 42.5366C349.953 42.1439 351.926 41.6669 353.926 40.8533C358.599 38.9736 361.738 35.7192 362.768 31.6511C364.175 26.0961 360.575 22.1403 354.121 22.1403C349.809 22.1403 345.259 23.8797 342.045 26.7414C340.107 28.4528 338.641 30.585 338.194 32.3525C337.902 33.5028 338.024 34.7372 338.505 35.5789C339.089 36.5889 339.221 36.9817 339.224 37.655C339.222 38.693 339.296 39.0858 339.421 39.5067C339.618 39.9836 340.141 40.3203 340.777 40.3203C342.225 40.3203 344.294 38.7772 346.942 35.7472C349.886 32.3525 352.356 28.4247 352.925 26.1803C353.202 25.0861 353.075 24.3286 352.354 23.1783C352.918 23.1222 353.149 23.1222 353.525 23.1222C358.503 23.1222 360.788 25.9839 359.574 30.7814C358.842 33.6711 357.262 36.14 354.811 38.16C352.613 39.9836 350.13 41.218 346.799 42.1439L346.815 42.5366ZM351.753 23.2625C351.782 23.2625 351.828 23.6553 351.829 23.8797C351.851 24.1322 351.788 24.4969 351.71 24.8056C351.397 26.04 349.939 28.3686 347.825 31.0058C345.07 34.4567 342.57 36.7853 341.615 36.7853C340.631 36.7853 340.151 34.7933 340.641 32.8575C341.238 30.5008 342.942 28.1161 345.429 26.1803C347.512 24.5811 349.281 23.7675 351.753 23.2625Z" fill="white"/>
<path d="M368.831 25.4228C369.291 27.7233 370.359 28.6492 372.645 28.6492C373.369 28.6492 373.868 28.6211 374.562 28.5089C371.833 32.9978 369.367 36.3364 367.523 38.0197C366.701 38.7492 366.565 38.9455 366.373 39.703C366.153 40.5728 366.165 41.6669 366.45 42.2561C366.582 42.5366 366.908 42.733 367.255 42.733C367.718 42.733 368.188 42.4805 368.598 42.0036C369.058 41.4425 369.776 40.3203 371.234 37.8794C373.919 33.4467 373.919 33.4467 374.881 31.8194C376.439 29.2103 376.439 29.2103 377.071 28.2003C382.758 26.7694 385.113 25.8156 385.354 24.8617C385.447 24.4969 385.373 24.2164 385.097 24.048C384.734 23.7675 383.952 23.543 383.431 23.543C383.112 23.543 382.73 23.6833 382.34 23.9639C381.085 24.8056 380.457 25.1142 378.593 25.7314C379.865 23.7956 380.347 23.1503 380.887 22.6172C381.492 22.0561 381.542 21.9719 381.627 21.6353C381.755 21.1303 381.398 20.5972 380.702 20.2606C379.781 19.7836 378.608 19.5031 377.566 19.5031C376.784 19.5031 376.568 19.5592 375.968 19.8678C376.86 20.1203 377.193 20.2886 377.462 20.5972C377.782 20.9339 377.864 21.4108 377.729 21.9439C377.48 22.9258 376.743 24.5811 375.746 26.4608C374.459 26.7414 373.237 26.8817 372.166 26.8817C370.719 26.8817 369.98 26.4889 369.163 25.2544L368.831 25.4228ZM380.397 30.9497C382.254 30.3605 384.076 30.0239 385.494 30.0239C385.668 30.0239 385.899 30.0239 386.218 30.0239L382.62 32.6892L382.729 32.9417C383.126 32.7453 383.227 32.6892 383.624 32.4928C384.779 31.9317 384.779 31.9317 385.003 31.8475C386.007 31.4267 386.896 31.2303 387.706 31.2303L388.828 31.2583C389.783 31.2583 390.346 30.8655 390.544 30.08C390.829 28.9578 389.776 28.2003 387.866 28.2003C385.58 28.2003 382.769 29.1261 380.353 30.6692L380.397 30.9497ZM378.384 35.2422C377.81 36.14 377.495 36.8133 377.281 37.655C376.891 39.198 377.165 40.5166 378.037 41.4144C379.004 42.3964 381.01 42.9294 383.789 42.9294C386.77 42.9294 388.215 42.4805 388.463 41.4986C388.57 41.0778 388.503 40.7691 388.292 40.4605C387.87 39.8433 386.985 39.3383 386.406 39.3383C386.232 39.3383 386.022 39.3664 385.798 39.4505C384.541 39.8433 383.789 39.9555 382.516 39.9555C379.101 39.9555 377.743 38.8053 378.354 36.3925C378.418 36.14 378.517 35.8594 378.71 35.3264L378.384 35.2422Z" fill="white"/>
<path d="M401.283 22.6453C402.317 24.0481 402.466 24.9458 402.244 28.4528C400.368 29.575 399.178 30.5008 398.033 31.7072C396.918 32.9136 396.034 34.3444 395.743 35.4947C395.558 36.2242 395.699 36.9255 396.129 37.5147C396.653 38.188 396.69 38.3844 396.6 39.3103C396.497 40.4044 396.832 40.9094 397.7 40.9094C398.424 40.9094 399.218 40.6289 400.409 39.9275C401.527 39.2822 402.479 38.6089 403.228 37.9355C403.943 39.1139 404.72 39.703 405.501 39.703C406.109 39.703 406.636 39.3383 406.771 38.8053C406.891 38.3283 406.796 38.0197 406.206 37.15C405.849 36.6169 405.747 36.4486 405.556 35.9436C408.257 33.2783 410.515 30.4167 412.842 26.7133C414.218 26.8817 415.023 27.2464 415.728 28.0039C416.775 29.1261 417.036 30.8375 416.518 32.8855C415.964 35.0739 414.714 37.0378 412.869 38.7211C410.701 40.6569 408.586 41.695 404.431 42.9014L404.418 43.1819C407.578 42.9294 409.653 42.5086 411.704 41.723C416.023 40.0958 418.853 37.2622 419.749 33.7272C420.843 29.4067 418.259 26.1242 413.416 25.7033C414.184 24.3847 414.765 23.1222 414.907 22.5611C415.042 22.0281 414.953 21.5792 414.56 21.1864C414.102 20.7094 413.203 20.3728 412.422 20.3728C411.699 20.3728 411.099 20.5692 409.85 21.1583L409.844 21.4108C410.263 21.3547 410.437 21.3547 410.697 21.3547C411.71 21.3547 412.008 21.6633 411.802 22.4769C411.596 23.2906 411.253 24.1883 410.544 25.7314C408.006 26.04 406.539 26.4608 404.287 27.4708C404.332 24.7775 403.675 23.5992 401.593 22.4489L401.283 22.6453ZM402.23 30.108C402.038 32.4647 402.104 34.2603 402.453 36.1961C400.99 37.4025 399.605 38.188 398.881 38.188C398.187 38.188 397.798 36.9816 398.089 35.8314C398.622 33.7272 399.908 31.9597 402.23 30.108ZM404.292 28.7053C406.262 27.555 407.656 27.078 410.057 26.7414C408.586 29.4628 406.818 31.9878 404.853 34.148C404.58 33.0539 404.483 32.2964 404.428 31.3705C404.338 29.2103 404.338 29.2103 404.292 28.7053Z" fill="white"/>
<path d="M433.638 42.5366C436.776 42.1439 438.749 41.6669 440.75 40.8533C445.422 38.9736 448.561 35.7192 449.592 31.6511C450.998 26.0961 447.398 22.1403 440.944 22.1403C436.632 22.1403 432.082 23.8797 428.869 26.7414C426.93 28.4528 425.464 30.585 425.017 32.3525C424.725 33.5028 424.847 34.7372 425.328 35.5789C425.912 36.5889 426.044 36.9817 426.047 37.655C426.045 38.693 426.119 39.0858 426.244 39.5067C426.441 39.9836 426.964 40.3203 427.601 40.3203C429.048 40.3203 431.117 38.7772 433.765 35.7472C436.709 32.3525 439.179 28.4247 439.748 26.1803C440.025 25.0861 439.898 24.3286 439.177 23.1783C439.741 23.1222 439.972 23.1222 440.349 23.1222C445.326 23.1222 447.612 25.9839 446.397 30.7814C445.665 33.6711 444.085 36.14 441.634 38.16C439.436 39.9836 436.953 41.218 433.622 42.1439L433.638 42.5366ZM438.577 23.2625C438.605 23.2625 438.651 23.6553 438.652 23.8797C438.675 24.1322 438.611 24.4969 438.533 24.8056C438.22 26.04 436.763 28.3686 434.648 31.0058C431.893 34.4567 429.393 36.7853 428.438 36.7853C427.454 36.7853 426.974 34.7933 427.465 32.8575C428.061 30.5008 429.765 28.1161 432.252 26.1803C434.336 24.5811 436.104 23.7675 438.577 23.2625Z" fill="white"/>
<path d="M481.252 24.4829C480.492 24.4829 479.618 24.3356 478.781 24.041L478.574 25.8576C479.51 25.563 479.978 25.514 480.991 25.514H481.194C481.358 30.8655 481.94 33.5659 483.588 36.659C480.135 40.0958 477.687 41.9615 473.508 44.4655C474.573 39.4575 475.157 36.9536 476.077 33.3204L479.421 20.1133H503.225C503.478 20.1133 503.655 20.0151 503.693 19.8678C503.717 19.7696 503.653 19.6223 503.539 19.475C501.846 17.5602 501.274 17.0201 499.315 15.1544C497.31 16.8728 496.679 17.3638 494.572 19.0822H460.538C459.525 19.0822 458.448 18.9349 457.358 18.6403L457.252 20.4569C458.378 20.2115 459.112 20.1133 460.277 20.1133H461.948L457.472 37.7882C455.814 37.9355 455.143 37.9846 454.232 37.9846C453.877 37.9846 453.32 37.9846 452.624 37.9355C452.791 44.0727 452.858 44.8091 453.466 44.8091C453.972 44.8091 454.426 44.22 454.95 42.7471C461.158 40.6359 466.34 38.7702 469.916 37.2482C469.443 38.9175 469.443 38.9175 467.7 45.2019C467.463 46.1348 467.679 46.2821 469.249 46.2821C472.288 46.2821 473.059 46.0366 473.371 45.0055C478.365 43.4835 481.246 42.1088 485.31 39.2612C486.698 40.9796 488.185 42.3052 490.395 43.7781C491.437 44.4655 492.782 45.1528 493.035 45.1528C493.289 45.1528 493.49 44.9564 493.842 44.3673C494.244 43.5817 494.986 42.6489 495.781 41.9124C496.852 40.8814 497.533 40.3904 498.999 39.8012L499.187 39.2612C494.207 38.5247 492.191 37.8864 489.195 36.1189C492.095 33.4677 493.769 31.4547 496.75 27.0851C498.621 26.4959 499.202 26.2013 499.314 25.7594C499.364 25.5631 499.312 25.3667 498.981 25.0721C497.48 23.5992 497.035 23.1573 495.497 21.8317C493.957 22.9118 493.503 23.3046 491.939 24.4829H481.252ZM467.063 20.1133H474.255L473.037 24.9248H465.845L467.063 20.1133ZM465.584 25.9558H472.776L471.57 30.7183H464.378L465.584 25.9558ZM464.117 31.7493H471.309L470.177 36.2171C466.85 36.7572 464.699 37.0518 462.737 37.1991L464.117 31.7493ZM491.728 25.514C489.544 29.5399 488.551 31.0619 486.221 33.8605C483.767 31.5529 482.846 29.589 482.156 25.514H491.728ZM470.572 15.0563H491.895L491.621 16.1364C491.46 16.7747 491.726 16.9219 493.144 16.9219C496.132 16.9219 496.904 16.6765 497.203 15.6945C498.084 11.8158 498.705 9.16459 499.053 7.78987L499.6 5.62959C501.141 4.94223 501.621 4.64765 501.733 4.20578C501.783 4.00939 501.63 3.813 501.312 3.46932C499.429 1.70182 499.429 1.70182 497.98 0.425293C496.479 1.55453 496.037 1.89821 494.586 3.02745H474.074C471.751 1.80001 471.028 1.45634 468.656 0.425293C468.211 2.78196 468.038 3.66571 467.254 6.75883C466.347 10.3429 465.786 12.3559 464.727 15.94C464.515 16.7747 464.693 16.8728 466.77 16.8728C469.606 16.8728 470.15 16.7256 470.373 15.8418L470.572 15.0563ZM493.561 8.47723H472.238L473.357 4.05848H494.68L493.561 8.47723ZM493.3 9.50827L492.156 14.0252H470.833L471.977 9.50827H493.3Z" fill="white"/>
<path d="M536.867 6.46425L537.65 3.37112C539.697 2.48737 539.811 2.43828 539.898 2.0946C540.06 1.45633 538.83 1.11265 535.79 0.916264C534.992 0.867168 533.802 0.768974 532.218 0.621681C531.998 2.29099 531.862 3.02745 531.651 3.8621L530.992 6.46425H515.595C514.329 6.46425 513.29 6.36605 511.807 6.02237L511.753 7.83897C512.866 7.64258 514.321 7.49529 515.385 7.49529H557.168C557.422 7.49529 557.662 7.348 557.699 7.2007C557.724 7.10251 557.698 7.00431 557.583 6.85702C555.522 4.79494 554.823 4.15668 552.624 2.24189L547.705 6.46425H536.867ZM525.406 11.5213C523.134 10.2938 522.411 9.95015 519.874 8.9682C519.416 11.1776 519.181 12.3068 518.609 14.5653C517.937 17.2165 517.888 17.4129 516.753 21.2916C516.642 21.9299 516.96 22.0771 518.226 22.0771C521.619 22.0771 522.049 21.979 522.4 21.1934L522.698 20.0151H538.5L538.165 21.3407C538.104 21.979 538.358 22.1753 539.371 22.1753C540.739 22.1753 542.662 21.979 543.168 21.7826C543.497 21.6844 543.648 21.488 543.823 20.997C543.997 20.3097 544.121 19.8187 544.208 19.475C544.593 17.7566 544.916 16.4801 544.941 16.3819C545.264 15.1053 545.314 14.909 545.6 13.7797C546.977 13.1415 547.532 12.7487 547.632 12.3559C547.681 12.1595 547.579 11.9631 547.337 11.7176C545.787 10.4411 545.266 10.0974 543.627 8.9682C542.201 9.99925 541.76 10.3429 540.398 11.5213H525.406ZM524.588 12.5523H540.39L538.761 18.984H522.959L524.588 12.5523ZM523.591 29.4908C521.458 28.3125 520.786 27.9688 518.451 26.9869C517.907 29.7363 517.584 31.0128 516.651 34.6951C515.918 37.5919 515.669 38.5738 514.908 40.9796C514.797 41.6178 515.064 41.7651 516.026 41.7651C517.241 41.7651 518.684 41.6669 519.216 41.5687C519.798 41.4705 519.987 41.3232 520.2 40.8814L520.834 38.3774H531.014L530.766 39.3594C530.667 39.9485 530.934 40.0958 532.048 40.0958C533.466 40.0958 534.82 39.9485 535.364 39.8012C535.705 39.6539 535.907 39.4576 536.082 38.9666C536.144 38.7211 536.194 38.5247 536.218 38.4265L537.336 33.8114C537.498 33.1731 537.622 32.6821 537.834 31.8475C539.614 30.8164 539.614 30.8164 539.714 30.4237C539.751 30.2764 539.725 30.1782 539.522 29.9818C538.135 28.6562 537.678 28.2634 536.127 26.9869L532.809 29.4908H523.591ZM522.823 30.5219H533.003L531.275 37.3464H521.095L522.823 30.5219ZM515.298 24.2374C512.975 22.8136 512.226 22.3717 509.662 21.0952C509.155 23.6974 508.298 27.2815 506.955 32.5839C505.687 37.5919 504.766 41.0287 503.545 45.251C503.409 45.9875 503.663 46.1839 504.676 46.1839C508.525 46.1839 509.12 46.0366 509.418 44.8582L511.792 35.2843L514.328 25.2685H544.261L540.444 40.3413C540.307 40.8814 540.105 41.0778 539.675 41.176C535.56 41.0287 535.306 41.0287 533.47 40.8814L533.27 41.4705C535.767 42.0106 536.49 42.3543 536.912 43.2871C537.118 43.8763 537.159 44.711 537.012 45.6929C536.9 46.1348 537.027 46.233 537.432 46.233C539.256 46.233 541.432 45.8402 542.733 45.3001C544.427 44.6128 545.069 43.8763 545.592 42.0106C546.114 39.9485 546.114 39.9485 546.374 38.7211C547.194 35.2843 547.306 34.8424 547.567 33.8114L549.345 26.7905C551.165 26.0049 551.644 25.7103 551.769 25.2194C551.806 25.0721 551.754 24.8757 551.5 24.6793C549.898 23.2064 549.351 22.7645 547.585 21.3407C545.995 22.6172 545.491 23.01 544.015 24.2374H515.298Z" fill="white"/>
<path d="M563.873 42.5366C567.011 42.1439 568.984 41.6669 570.984 40.8533C575.657 38.9736 578.796 35.7192 579.826 31.6511C581.233 26.0961 577.633 22.1403 571.179 22.1403C566.867 22.1403 562.317 23.8797 559.103 26.7414C557.165 28.4528 555.699 30.585 555.251 32.3525C554.96 33.5028 555.082 34.7372 555.563 35.5789C556.147 36.5889 556.279 36.9817 556.282 37.655C556.279 38.693 556.354 39.0858 556.479 39.5067C556.676 39.9836 557.199 40.3203 557.835 40.3203C559.282 40.3203 561.352 38.7772 564 35.7472C566.943 32.3525 569.414 28.4247 569.982 26.1803C570.26 25.0861 570.133 24.3286 569.411 23.1783C569.975 23.1222 570.207 23.1222 570.583 23.1222C575.561 23.1222 577.846 25.9839 576.631 30.7814C575.9 33.6711 574.319 36.14 571.869 38.16C569.671 39.9836 567.187 41.218 563.856 42.1439L563.873 42.5366ZM568.811 23.2625C568.84 23.2625 568.885 23.6553 568.886 23.8797C568.909 24.1322 568.846 24.4969 568.768 24.8056C568.455 26.04 566.997 28.3686 564.882 31.0058C562.127 34.4567 559.628 36.7853 558.673 36.7853C557.689 36.7853 557.209 34.7933 557.699 32.8575C558.296 30.5008 560 28.1161 562.487 26.1803C564.57 24.5811 566.339 23.7675 568.811 23.2625Z" fill="white"/>
<path d="M612.631 3.7639C610.625 2.48737 609.952 2.1437 607.756 1.01446C607.297 3.02745 607.123 3.71481 606.7 5.38411L606.598 5.18772C605.159 3.46932 604.727 2.97835 603.2 1.40724C601.561 2.88015 601.082 3.37112 599.544 4.84404H593.669C592.605 4.84404 591.82 4.74584 590.628 4.45126L590.522 6.07147C591.673 5.92418 592.192 5.87508 593.408 5.87508H595.434L592.276 18.3458H590.655C589.541 18.3458 588.907 18.2476 587.665 17.953L587.559 19.5732C588.812 19.4259 589.432 19.3768 590.445 19.3768H592.015L588.645 32.6821C585.483 33.3695 584.851 33.4677 582.927 33.6641C583.182 39.4575 583.378 40.685 583.935 40.685C584.39 40.685 584.742 40.0958 585.305 38.4756C594.008 34.106 596.546 32.6821 600.585 29.9327L600.418 29.3926C597.966 30.2764 597.03 30.571 594.261 31.3074L597.282 19.3768H602.651C602.954 19.3768 603.131 19.2786 603.169 19.1313C603.193 19.0331 603.18 18.8858 603.104 18.7876C602.198 17.3638 601.905 16.9219 600.822 15.5963C599.549 16.8238 599.209 17.1674 597.948 18.3458H597.543L600.701 5.87508H606.019L606.613 5.72779C605.718 9.26278 605.718 9.26279 604.311 14.418L604.287 14.5162C604.075 15.3508 604.406 15.6454 605.571 15.6454C606.837 15.6454 608.343 15.4981 608.899 15.3017C609.24 15.1544 609.391 14.9581 609.566 14.4671L609.715 13.8779H627.29L627.166 14.3689C627.055 15.0072 627.359 15.2035 628.524 15.2035C628.778 15.2035 629.183 15.2035 629.651 15.1544C628.78 15.7927 628.213 16.2346 626.837 17.2656H606.832C605.566 17.2656 604.628 17.1674 603.538 16.8728L603.482 18.4931C604.684 18.3458 605.304 18.2967 606.571 18.2967H633.971C634.274 18.2967 634.451 18.1985 634.489 18.0512C634.513 17.953 634.488 17.8548 634.385 17.6584C633.063 16.4801 633.063 16.4801 631.423 14.9581C632.283 14.7617 632.535 14.5653 632.722 13.8288C633.503 10.3429 633.763 9.1155 634.546 6.02237C635.974 5.38411 636.403 5.08953 636.503 4.69675C636.577 4.40216 636.437 4.15668 636.03 3.7639C634.669 2.53647 634.199 2.19279 632.725 1.01446C631.262 2.19279 630.82 2.53647 629.345 3.7639H612.631ZM627.551 12.8469H624.563L626.602 4.79494H629.59L627.551 12.8469ZM620.207 12.8469H617.219L619.258 4.79494H622.246L620.207 12.8469ZM612.863 12.8469H609.977L612.015 4.79494H614.902L612.863 12.8469ZM623.819 21.5862H609.486C607.379 20.506 606.694 20.2115 604.385 19.3277C603.963 21.1934 603.79 22.0772 603.392 23.6483C602.994 25.2194 602.558 26.7414 601.525 30.4237L601.512 30.4728C601.326 31.2092 601.567 31.4547 602.631 31.4547C604.353 31.4547 605.656 31.3074 606.162 31.111C606.44 31.0128 606.654 30.7674 606.817 30.3255L607.003 29.589H610.245C607.282 32.2894 605.326 33.8114 601.83 36.2171C597.185 39.3594 593.7 41.3232 588.368 43.7781L588.497 44.2691C592.581 43.1398 595.135 42.2561 598.484 40.8323C603.26 38.7702 606.203 37.15 609.761 34.4987L608.716 38.4265C608.056 40.8323 607.67 42.1579 606.76 45.3492C606.735 45.4474 606.71 45.5456 606.698 45.5947C606.536 46.233 606.867 46.5275 607.829 46.5275C607.829 46.5275 607.931 46.5275 608.032 46.5275C608.133 46.5275 608.336 46.5275 608.538 46.5275C609.956 46.5275 611.222 46.3312 611.677 46.1348C611.916 45.9875 612.067 45.7911 612.23 45.3492C613.061 41.6669 613.061 41.6669 614.092 37.3955L615.718 30.3746C616.91 36.2662 618.788 39.8503 622.209 42.9435C623.315 43.9745 624.357 44.6619 624.813 44.6619C625.015 44.6619 625.192 44.5637 625.368 44.2691C626.914 41.7651 628.048 40.685 630.209 39.7521L630.371 39.3103C626.355 38.7702 622.968 37.3464 620.54 35.3334C623.007 34.9897 624.348 34.6951 627.32 33.9587C628.144 34.106 628.676 34.2042 628.929 34.2042C629.335 34.2042 629.688 34.0078 629.763 33.7132C629.85 33.3695 629.812 33.3204 626.102 30.571C626.962 30.3746 627.277 30.1291 627.439 29.4908C628.159 26.4468 628.593 24.532 628.804 23.6974C630.195 23.2064 630.624 22.9118 630.724 22.519C630.773 22.3226 630.684 22.0772 630.302 21.7826C628.968 20.6533 628.548 20.3096 627.074 19.1313L623.819 21.5862ZM622.197 29.589L622.172 29.6872C622.147 29.7854 622.135 29.8345 622.123 29.8836C621.961 30.5219 622.253 30.7674 623.216 30.7674L623.937 30.7183C624.089 30.7183 624.14 30.7183 624.393 30.7183C622.855 32.1912 621.783 33.0258 619.548 34.4496C617.907 32.7312 617.192 31.5529 616.525 29.589H622.197ZM622.458 28.558H607.264L608.769 22.6172H623.963L622.458 28.558Z" fill="white"/>
<path d="M674.842 7.2989C673.663 9.75376 672.205 12.1104 670.217 14.7617H663.988C665.276 14.0743 666.258 12.9942 666.507 12.0122C666.93 10.3429 665.709 9.16459 661.572 7.2989L660.966 7.69167C661.416 9.11549 661.559 9.95014 661.477 11.2758C661.275 14.0743 661.275 14.0743 661.557 14.7617H655.479C654.434 13.2888 654.293 13.0433 653.16 11.7176L649.958 14.7617H649.452L652.125 4.20578C653.795 3.813 654.489 3.46932 654.614 2.97835C654.763 2.38918 654.103 2.19279 650.772 1.94731C649.974 1.89821 648.733 1.80001 647.15 1.65272C646.619 4.54946 646.296 6.02237 645.625 8.67362L644.083 14.7617H641.095C640.184 14.7617 639.309 14.6144 638.308 14.3689L638.126 16.0873C639.138 15.8909 639.973 15.7927 640.834 15.7927H643.822L639.918 31.2092C637.363 31.7002 636.25 31.8966 634.073 32.093C634.525 39.5067 634.525 39.5067 635.133 39.5067C635.64 39.5067 635.966 39.0157 636.54 37.15C642.011 34.5478 647.353 31.6511 652.315 28.6562L652.199 28.1161C649.025 29.0489 647.887 29.3435 645.623 29.8836L649.191 15.7927H685.555C685.859 15.7927 686.087 15.6945 686.124 15.5472C686.149 15.449 686.135 15.3017 685.97 15.1544C684.404 13.3379 683.883 12.7978 682.014 11.1776C679.832 12.9942 679.832 12.9942 677.662 14.7617H672.395C674.895 13.2888 676.195 12.3559 678.744 10.4902C680.44 10.392 680.933 10.2447 681.045 9.80286C681.182 9.26278 680.408 8.91911 676.007 7.2989H686.693C687.098 7.2989 687.275 7.2007 687.312 7.05341C687.337 6.95522 687.324 6.80793 687.159 6.66064C685.492 4.84404 684.907 4.35307 682.949 2.68376C681.146 4.20578 680.578 4.64765 678.699 6.26786H673.128L673.874 3.32203C675.72 2.83106 676.352 2.53647 676.464 2.0946C676.501 1.94731 676.411 1.70182 676.284 1.60362C675.713 1.25995 675.573 1.21085 668.911 0.719878C668.602 2.34008 668.454 3.12564 668.143 4.35307L667.658 6.26786H659.656C658.592 6.26786 657.705 6.16967 656.463 5.87508L656.332 7.59348C657.344 7.39709 658.28 7.2989 659.395 7.2989H674.842ZM657.04 31.7984H665.042L663.774 36.8063C663.115 39.4085 663.115 39.4085 662.456 42.0106L662.419 42.1579C661.71 44.9564 662.522 45.3492 668.701 45.3492C672.55 45.3492 675.538 45.1528 676.853 44.76C678.054 44.4164 679.062 43.4344 679.361 42.2561C679.609 41.2741 679.327 40.5868 678.439 40.0958C677.956 39.8012 677.842 39.6539 677.954 39.2121C677.966 39.163 678.053 38.8193 678.228 38.3283L680.313 31.8966L679.78 31.7984C676.199 37.7392 675.382 38.9666 674.626 39.7521C673.933 40.4886 673.225 40.685 671.3 40.685C668.16 40.685 668.16 40.685 668.434 39.6048L670.411 31.7984H671.424L671.212 32.633C671.101 33.2713 671.19 33.3204 672.608 33.3204C674.887 33.3204 676.051 33.124 676.455 32.7312C676.593 32.5839 676.694 32.3876 676.793 31.9948C677.586 28.2634 677.884 27.0851 679.389 21.1443C680.753 20.5551 681.119 20.3097 681.219 19.9169C681.294 19.6223 681.179 19.475 680.772 19.0822C679.374 18.0021 678.955 17.6584 677.455 16.5783C676.118 17.6584 675.677 18.0021 674.214 19.1804H660.792C658.583 17.9039 657.86 17.5602 655.5 16.4801C655.066 18.5913 654.769 19.966 654.16 22.3717C652.979 27.036 652.418 29.049 651.397 32.6821C651.161 33.615 651.427 33.7623 653.149 33.7623C654.567 33.7623 655.137 33.7132 655.997 33.5168C654.845 36.2662 653.359 38.1319 650.95 40.0467C647.922 42.4034 644.258 44.0727 638.416 45.742L638.356 46.3803C644.481 45.7911 647.429 45.1528 651.068 43.5817C655.554 41.6669 658.328 39.3103 661.081 35.0388C662.65 34.646 662.991 34.4987 663.103 34.0569C663.252 33.4677 663.011 33.4186 656.853 32.5348L657.04 31.7984ZM673.177 24.8757H658.793L659.974 20.2115H674.358L673.177 24.8757ZM672.915 25.9067L671.685 30.7674H657.301L658.532 25.9067H672.915Z" fill="white"/>
</svg>
