<svg width="760" height="51" viewBox="0 0 760 51" fill="none" xmlns="http://www.w3.org/2000/svg">
<path d="M28.4025 9.23359L29.857 3.48944C31.8957 2.9526 32.5234 2.68418 32.6593 2.14735C32.8496 1.39578 32.3731 1.28841 24.3927 0.536836C24.0456 2.79155 23.8704 3.70417 23.3403 5.79783L22.4703 9.23359H17.0417C15.6986 9.23359 14.7744 9.12622 13.6248 8.80412L13.5543 10.6294C14.4481 10.4146 15.2452 10.3609 16.7563 10.3609H22.1848L20.1593 18.3598H13.6674C12.2124 18.3598 11.0083 18.2524 9.74677 17.9303L9.66273 19.8093C10.9059 19.5408 11.703 19.4872 13.382 19.4872H20.6013L16.1289 37.1491C14.9002 35.5922 14.4733 34.6259 14.0353 32.1565C15.0268 30.0092 15.4801 28.8818 16.5772 25.8755C18.2937 25.285 18.8654 25.0166 18.9741 24.5871C19.0421 24.3187 18.8862 24.0503 18.4657 23.9429C17.918 23.6745 17.5399 23.6208 11.4063 22.8692C11.2327 23.9966 11.124 24.4261 10.9336 25.1776C10.2675 27.8081 8.45884 32.9617 6.96121 36.6659C5.09178 41.1753 3.60139 43.9669 0.656633 48.7447L1.21786 48.9595C6.83213 43.8058 10.131 39.6185 13.2493 33.7133C13.4529 40.4238 16.1285 44.6648 21.5034 46.8658C24.7029 48.1542 28.5947 48.4763 42.1381 48.4763C46.7271 48.4763 49.8187 48.4226 50.8533 48.3153C51.4825 48.2616 51.552 48.2079 52.0054 47.0805C52.3892 46.0069 53.192 44.8258 54.1642 43.8595C54.8582 43.108 55.3315 42.7859 56.502 42.1417L56.6243 41.6585C49.3266 42.4101 40.5434 42.8395 33.2121 42.8395C26.9441 42.8395 23.7646 42.3564 20.928 40.9606L23.7284 29.9018H33.4102C33.69 29.9018 33.9411 29.7944 33.9954 29.5797C34.0226 29.4723 33.9379 29.3649 33.838 29.0965C32.411 27.2176 31.9449 26.6271 30.2805 24.8018C28.404 26.466 27.8203 27.0029 25.9167 28.7744H24.0139L26.3656 19.4872H36.2153C36.4952 19.4872 36.7462 19.3798 36.787 19.2187C36.8142 19.1114 36.799 18.9503 36.6159 18.7893C34.9787 16.8567 34.443 16.3198 32.6531 14.5483C30.8326 16.2125 30.3185 16.6956 28.4979 18.3598H26.0915L28.117 10.3609H38.5823C38.8621 10.3609 39.1131 10.2536 39.1539 10.0925C39.1947 9.93147 39.1659 9.82411 38.9965 9.60937C37.2625 7.83781 36.7268 7.30098 34.8809 5.52942C33.0876 7.08624 32.5039 7.62308 30.753 9.23359H28.4025ZM43.3371 4.40206C42.1059 4.40206 40.9579 4.29469 39.8082 3.97259L39.7242 5.85152C40.7859 5.63678 41.7645 5.52942 43.0517 5.52942H54.5243L51.5336 17.3398H44.1464C41.7 15.7293 40.871 15.2462 38.2023 13.8504C37.6074 16.6419 37.3371 17.9303 36.9157 19.5945L34.9174 27.486C34.5367 28.9892 34.4144 29.4723 33.9522 31.2976L32.9734 35.1628C32.105 38.8133 32.7646 39.0817 42.5583 39.0817C48.8263 39.0817 52.1825 38.8669 53.9838 38.3838C55.5476 37.9543 56.5894 36.9343 56.9292 35.5922C57.1739 34.6259 56.9165 33.8744 56.3265 33.5523C54.7684 32.8544 54.7684 32.8544 54.9179 32.2639C54.9451 32.1565 55.0267 31.8344 55.1082 31.5123L57.7174 22.9766L57.1713 22.9229C53.6781 29.2039 52.1709 31.6197 51.0883 32.8007C50.0889 33.8744 49.2646 34.0354 45.3471 34.0354C45.2352 34.0354 45.0114 34.0354 44.7315 34.0354C43.1222 33.9817 42.0029 33.9817 41.3873 33.9817C39.4285 33.9817 39.2031 33.767 39.5158 32.5323L43.0774 18.4672H51.2482L50.7316 20.5071C50.5005 21.4198 50.7955 21.5808 52.5863 21.5808C55.8323 21.5808 56.7533 21.2587 57.0795 19.9703C58.0279 15.783 58.475 13.7967 59.3178 10.4683L60.147 7.19361C61.862 6.38835 62.4048 6.01257 62.5272 5.52942C62.5816 5.31468 62.4257 5.04626 62.0307 4.61679C60.4526 3.11365 59.9458 2.68418 58.2286 1.28841C56.5032 2.57682 56.0027 3.00628 54.3061 4.40206H43.3371Z" fill="#384459"/>
<path d="M119.126 11.8641C119.518 11.8641 119.825 11.7567 119.865 11.5957C119.893 11.4883 119.821 11.3272 119.694 11.1662C117.791 9.1799 117.199 8.64306 115.185 6.87151C112.501 9.07253 112.501 9.07253 110.401 10.7367H104.861C107.787 9.12622 108.051 8.96516 113.619 5.09995C113.843 5.09995 114.011 5.09995 114.067 5.09995C115.634 5.09995 116.36 4.88521 116.482 4.40206C116.632 3.81154 115.087 3.05997 109.685 0.966307C108.332 3.43575 105.799 7.03256 102.734 10.7367H100.551L102.522 2.9526C104.324 2.46945 104.839 2.20103 104.948 1.77156C105.139 1.01999 104.382 0.912623 97.4395 0.483153C97.0212 2.57682 96.8325 3.54312 96.3159 5.5831L95.0109 10.7367H90.8696L92.8679 2.84523C94.6555 2.41576 95.1712 2.14735 95.2936 1.66419C95.3616 1.39578 95.1921 1.18104 94.8275 1.07368C94.2663 0.85894 93.8322 0.805257 87.7289 0.375787C87.4498 2.36208 87.2746 3.2747 86.6765 5.63678L85.3851 10.7367H72.1216C70.7225 10.7367 69.3641 10.5757 67.9483 10.1999L67.7947 12.1325C68.8988 11.9715 70.2131 11.8641 71.8361 11.8641H81.1261L80.5697 12.2936C81.6049 14.1725 81.8247 15.5146 81.8166 18.1988C81.8093 19.1114 81.8533 19.3798 82.1923 19.8093H72.6783C71.2792 19.8093 70.1872 19.7019 68.7153 19.3261L68.5617 21.2587C70.1407 20.9903 70.9938 20.9366 72.3929 20.9366H87.3353L86.1118 25.7681H74.4713C72.7364 25.7681 71.49 25.6071 69.8927 25.285L69.7391 27.2176C71.3604 27.0029 72.6748 26.8955 74.1858 26.8955H85.8264L84.5213 32.0491H67.7321C66.277 32.0491 65.2409 31.9418 63.5452 31.566L63.3221 33.5523C64.7891 33.2838 66.2154 33.1765 67.4466 33.1765H79.6468C76.659 35.9143 75.0319 37.2564 72.2344 39.2427C67.5301 42.5711 63.2383 44.9332 57.8273 47.2953L57.9999 47.9395C63.9074 46.49 66.8808 45.5774 70.5905 43.9669C75.0533 42.0343 78.2018 40.209 83.4338 36.3438L82.6046 39.6185C82.2919 40.8532 80.8054 46.0606 79.9594 48.9595C79.7283 49.8721 79.9673 50.0331 81.8142 50.0331C85.228 50.0331 86.0099 49.8184 86.2954 48.6911C87.3509 43.8595 87.8403 41.9269 88.4928 39.3501L89.8522 33.9817C92.2728 39.6722 95.0948 42.8932 99.8284 45.4164C101.865 46.4363 104.769 47.5637 105.497 47.5637C105.944 47.5637 106.014 47.51 106.581 46.5974C108.351 43.8058 109.505 42.7859 111.667 41.9806L111.858 41.229C104.971 40.7996 100.262 39.7259 96.1336 37.6859C93.999 36.6122 92.5632 35.4312 90.7837 33.1765H112.218C112.666 33.1765 112.973 33.0691 113.027 32.8544C113.068 32.6933 112.997 32.5323 112.814 32.3712C110.939 30.4923 110.361 29.9018 108.291 28.1302C106.135 29.7944 105.453 30.2776 103.213 32.0491H90.3416L91.6466 26.8955H108.772C109.163 26.8955 109.47 26.7881 109.525 26.5734C109.552 26.466 109.494 26.2513 109.311 26.0902C107.577 24.3187 107.028 23.8355 105.099 22.1713C103.151 23.6745 102.525 24.1576 100.495 25.7681H91.9321L93.1556 20.9366H113.918C114.254 20.9366 114.561 20.8293 114.602 20.6682C114.643 20.5071 114.558 20.3998 114.431 20.2387C112.612 18.3598 111.964 17.823 109.937 16.1051C107.92 17.6619 107.224 18.1988 105.138 19.8093H96.4071C98.2052 18.8966 98.2052 18.8966 103.708 15.7293C103.863 15.783 104.03 15.783 104.086 15.783C105.597 15.783 106.323 15.5683 106.459 15.0314C106.609 14.4409 106.609 14.4409 100.042 11.8641H119.126ZM99.4264 11.8641C97.8257 14.8704 96.3577 16.9103 93.7768 19.8093H84.9345C86.2865 19.1114 87.2859 18.0377 87.5849 16.8567C88.0336 15.0851 86.3027 13.743 81.1261 11.8641H99.4264ZM75.4399 1.61051C76.9428 4.29469 77.488 6.11994 77.4631 8.42833C77.4182 9.93147 77.8147 10.5757 78.7661 10.5757C80.3891 10.5757 82.7525 8.5357 83.2011 6.76414C83.7448 4.61679 81.9157 3.22102 75.9964 1.18104L75.4399 1.61051Z" fill="#384459"/>
<path d="M121.287 25.5227C121.663 26.5657 122.027 27.1486 122.67 27.6394C123.354 28.2223 124.676 28.5597 126.083 28.5597C126.307 28.5597 126.634 28.529 127.154 28.4983C124.861 30.8604 122.16 33.1918 120.75 33.9587C119.596 34.6029 119.556 34.6336 119.254 34.9404C119.032 35.1858 118.851 35.5232 118.758 35.8913C118.393 37.3331 118.728 38.4068 119.528 38.4068C120.04 38.4068 120.382 38.1921 121.47 37.1798C124.749 34.0814 127.383 32.5169 129.334 32.5169C130.006 32.5169 130.496 32.8544 130.652 33.3759C130.76 33.9587 130.755 34.3575 130.492 35.5232C127.935 36.9037 126.996 37.4558 126.05 38.1614C124.038 39.6645 122.858 41.1677 122.485 42.6401C122.12 44.0819 122.465 45.2476 123.493 45.9839C124.795 46.9042 126.869 47.303 130.387 47.303C133.265 47.303 135.486 47.1189 136.755 46.7814C137.545 46.5667 138.109 46.1066 138.249 45.5544C138.396 44.9715 138.16 44.3887 137.605 43.9285C137.074 43.4991 136.345 43.223 135.833 43.223C135.545 43.223 135.306 43.2843 134.397 43.5911C132.865 44.0819 130.381 44.4194 128.303 44.4194C125.041 44.4194 123.709 43.7445 124.082 42.272C124.478 40.7075 126.083 39.4191 129.971 37.5785C129.761 38.4068 129.621 38.8363 129.41 39.5418C129.027 40.6769 129.027 40.6769 129.003 40.7689C128.801 41.5665 129.221 42.0573 130.084 42.0573C130.756 42.0573 131.473 41.7505 131.853 41.2597C132.131 40.9223 132.365 40.2474 132.746 38.7442C132.824 38.4375 132.839 38.3761 133.296 36.3208C135.599 35.3085 138.789 34.3268 142.668 33.4066C143.65 33.1918 144.047 32.8851 144.203 32.2715C144.607 30.6764 142.383 28.345 140.496 28.345C140.176 28.345 139.977 28.3756 139.458 28.529C140.477 29.0505 140.937 29.6334 140.782 30.2469C140.712 30.523 140.45 30.7991 139.933 31.0752C139.192 31.4739 137.878 32.1181 136.802 32.5783C134.004 33.7747 134.004 33.7747 133.383 34.0814C133.337 33.2532 133.206 32.8851 132.899 32.4556C132.399 31.7807 131.501 31.4126 130.445 31.4126C129.07 31.4126 127.73 31.7807 125.523 32.793C126.118 32.2102 126.118 32.2102 127.768 30.4923C128.244 30.0015 128.593 29.6334 129.887 28.3143C132.554 27.8848 134.757 27.394 136.903 26.7498C139.152 26.0749 139.813 25.7375 139.976 25.0933C140.178 24.2957 139.166 23.6208 137.759 23.6208C137.407 23.6208 137.096 23.7128 136.786 23.9276C135.481 24.7865 135.154 24.9399 132.067 25.8908C132.908 24.9706 133.678 24.2037 134.337 23.6208C134.822 23.222 135.059 22.9152 135.122 22.6698C135.254 22.1483 134.858 21.6882 134.056 21.3201C133.078 20.8906 131.74 20.6145 130.621 20.6145C129.886 20.6145 129.543 20.7065 128.778 21.0747C130.5 21.4735 131.095 22.0256 130.831 23.0686C130.621 23.8969 129.769 25.3694 128.857 26.443C127.54 26.7191 126.622 26.8111 125.598 26.8111C123.616 26.8111 122.742 26.4737 121.598 25.308L121.287 25.5227Z" fill="#384459"/>
<path d="M160.504 45.47H184.289L183.527 48.4763C183.339 49.4426 183.634 49.6037 185.872 49.6037C187.719 49.6037 189.285 49.3889 189.87 49.0668C190.204 48.8521 190.453 48.53 190.562 48.1005C190.576 48.0468 190.603 47.9395 190.617 47.8858C192.509 38.8669 192.509 38.8669 200.475 7.40834C202.302 6.60309 202.9 6.2273 203.036 5.69047C203.104 5.42205 203.004 5.15363 202.652 4.77785C200.919 3.22102 200.37 2.73787 198.499 1.28841C196.621 2.73787 195.995 3.22102 194.033 4.77785H171.592C168.752 2.9526 167.881 2.41576 164.903 0.912623C163.47 7.67676 162.522 11.8641 160.673 19.1651C157.982 29.7944 154.701 42.088 152.885 48.1542C152.586 49.3353 152.937 49.4963 155.175 49.4963C157.078 49.4963 158.699 49.2816 159.159 49.0132C159.549 48.7984 159.729 48.53 159.879 47.9395L160.504 45.47ZM191.426 17.2861H167.641L170.523 5.9052H194.308L191.426 17.2861ZM191.14 18.4135L188.19 30.0628H164.405L167.355 18.4135H191.14ZM187.905 31.1902L184.574 44.3427H160.789L164.12 31.1902H187.905Z" fill="#384459"/>
<path d="M224.647 12.5083L226.863 3.75785C228.72 3.2747 229.543 2.89892 229.665 2.41577C229.855 1.66419 228.902 1.44946 221.482 0.697888C221.162 2.84523 220.771 4.83153 220.064 7.62308L218.827 12.5083H215.357C213.902 12.5083 212.978 12.4009 211.506 12.0251L211.422 13.9041C212.763 13.6893 213.56 13.6356 215.071 13.6356H218.541L215.618 25.1776C212.057 25.9829 209.667 26.3587 207.583 26.4123C207.71 32.3175 207.903 33.767 208.575 33.767C209.078 33.767 209.521 33.1228 210.097 31.5123C212.999 30.4386 212.999 30.4386 214.436 29.8481L211.214 42.5711C211.051 43.2153 210.842 43.3764 210.171 43.3764C207.666 43.3227 206.784 43.269 203.102 43.0006L202.883 43.6448C205.674 44.5574 206.517 44.9869 207.097 45.7921C207.647 46.49 207.767 47.5637 207.568 49.0132C207.42 49.8184 207.449 49.9258 208.064 49.9258C208.4 49.9258 208.918 49.8721 209.435 49.8184C212.062 49.3889 213.945 48.5837 215.07 47.4563C215.876 46.7048 216.22 46.0069 216.766 44.0743C217.864 39.2964 217.864 39.2964 218.203 37.9543L219.685 32.1028L221.06 26.8955C225.27 24.8555 226.51 24.1576 229.742 22.225L229.667 21.6345C224.028 23.3524 224.028 23.3524 221.835 23.8355L224.417 13.6356H231.525C231.973 13.6356 232.224 13.5283 232.278 13.3135C232.305 13.2062 232.276 13.0988 232.163 12.8841C230.961 11.2199 230.58 10.7367 229.197 9.12622C227.376 10.7904 227.376 10.7904 225.486 12.5083H224.647ZM240.7 3.70417C242.514 3.16733 243.03 2.89892 243.152 2.41577C243.302 1.82525 242.53 1.55683 239.254 1.23472C238.442 1.12736 237.084 0.966305 235.333 0.805256C235 3.00628 234.811 3.97259 234.268 6.11993L231.304 17.823C230.855 19.5945 231.099 20.3998 232.306 20.9366C233.303 21.4198 234.745 21.4735 243.755 21.4735C253.157 21.4735 256.332 21.3124 258.23 20.6682C259.514 20.2387 260.333 19.4335 260.646 18.1988C260.891 17.2324 260.635 16.6956 259.54 16.1588C258.95 15.8367 258.794 15.5683 258.943 14.9777C258.97 14.8704 259.025 14.6556 259.093 14.3872L260.871 8.91148L260.395 8.80412C257.778 12.5083 256.96 13.5283 255.864 14.763C254.532 16.2661 254.197 16.4809 252.478 16.6419C251.681 16.6956 246.561 16.803 243.147 16.803C239.453 16.803 238.18 16.7493 237.842 16.5346C237.534 16.4272 237.546 16.1588 237.75 15.3535L238.701 11.5957C245.27 10.6294 251.807 9.12622 259.191 6.92519C259.934 7.08624 260.592 7.13992 261.208 7.13992C261.767 7.13992 262.283 6.87151 262.365 6.5494C262.514 5.95888 261.473 5.20731 256.44 1.87893C254.2 3.65049 251.413 5.15363 246.253 7.40834C243.617 8.5357 242.194 9.07254 239.082 10.0925L240.7 3.70417ZM223.53 48.7447C223.272 49.7647 223.567 49.9258 225.301 49.9258C229.163 49.9258 229.651 49.7647 230.018 48.3153L230.494 46.4363H243.478L242.934 48.5837C242.732 49.6037 242.915 49.7647 244.762 49.7647C248.12 49.7647 249.041 49.4426 249.367 48.1542C250.681 42.3027 251.089 40.6922 253.971 29.3113C255.936 28.3986 256.271 28.1839 256.366 27.8081C256.434 27.5397 256.334 27.2713 255.981 26.8955C254.446 25.446 253.952 24.9629 252.137 23.5134C250.467 24.8018 249.967 25.2313 248.34 26.5734H236.14C233.693 24.9629 232.864 24.4797 230.126 23.1376C229.49 26.0902 228.921 28.5597 227.562 33.9281C225.971 40.209 225.331 42.5174 223.557 48.6374L223.53 48.7447ZM246.251 35.4849H233.267L235.239 27.7008H248.222L246.251 35.4849ZM245.966 36.6122L243.763 45.309H230.78L232.982 36.6122H245.966Z" fill="#384459"/>
<path d="M272.481 50.1405C278.108 48.6911 280.829 47.6711 283.908 45.8995C289.871 42.4637 293.849 37.3638 295.398 31.2439C296.146 28.2913 296.118 26.4123 295.329 23.7819C295.451 23.2987 295.56 22.8692 295.615 22.6545C296.118 20.6682 297.169 17.1788 298.113 14.3335C300.057 14.1725 301.022 14.1188 302.925 14.1188C306.506 14.1188 308.872 14.2798 311.967 14.6556C313.858 14.9241 314.67 15.0314 315.174 15.0314C316.349 15.0314 317.351 14.3872 317.596 13.4209C317.814 12.562 317.67 12.0251 317.092 11.4346C315.949 10.1999 313.745 9.1799 312.234 9.1799C311.395 9.1799 310.808 9.28727 309.692 9.71674C307.585 10.522 307.124 10.5757 299.182 11.2199C300.019 9.01885 300.253 8.5357 301.46 7.08624C302.098 6.33467 302.305 5.95888 302.441 5.42205C302.753 4.18732 301.963 3.32839 299.958 2.6305C298.092 2.03998 295.991 1.71788 293.865 1.71788C292.074 1.71788 291.292 1.93261 290.067 2.79155C292.546 3.16733 293.769 3.86522 294.365 5.04626C294.89 6.06625 294.735 7.78413 293.814 11.8641C289.9 12.2936 288.18 12.4546 285.86 12.7767C275.545 14.1725 275.545 14.1725 273.866 14.1725C271.347 14.1725 269.745 13.2062 268.68 11.0051C268.403 11.4346 268.279 11.703 268.225 11.9178C267.939 13.0451 268.217 14.6019 268.886 16.1588C269.909 18.3061 271.289 19.4872 272.912 19.4872C273.415 19.4872 274.184 19.3261 274.616 19.1651C279.344 17.0714 285.475 15.6219 293.192 14.763C292.772 16.6419 292.663 17.0714 292.337 18.3598C292.174 19.004 292.065 19.4335 291.684 20.9366C290.308 20.185 289.677 20.024 288.502 20.024C283.857 20.024 279.644 23.6208 278.366 28.6671C277.102 33.6596 279.396 37.4175 283.649 37.4175C284.993 37.4175 286.137 37.0954 287.364 36.4512C285.544 40.1017 283.686 42.3564 280.417 44.8795C277.982 46.7584 275.767 47.9932 272.364 49.4963L272.481 50.1405ZM289.888 27.8081C289.141 30.7607 287.419 32.4786 285.236 32.4786C282.773 32.4786 281.693 30.1165 282.549 26.7344C283.283 23.8355 285.589 21.5808 287.828 21.5808C290.122 21.5808 290.894 23.8355 289.888 27.8081Z" fill="#384459"/>
<path d="M313.474 50.0331C317.575 48.4226 319.388 47.6711 321.521 46.5437C329.034 42.7322 335.583 37.2028 340.653 30.4386C344.962 24.6945 347.415 19.6482 350.287 10.7367C349.131 17.0714 348.819 20.2924 348.881 24.9092C349.003 31.9418 350.36 37.6322 353.038 42.088C354.864 45.0406 358.658 49.0668 359.721 49.0668C360.001 49.0668 360.265 48.9058 360.625 48.369C363.132 44.8795 364.689 43.5911 367.775 42.6785L367.966 42.1417C363.702 40.6385 361.384 39.4038 358.638 36.988C353.878 32.8007 351.403 27.325 350.859 19.9703C350.533 15.5146 350.891 11.0051 351.802 7.40834C351.91 6.97887 352.074 6.33467 352.333 5.52942C354.343 4.88521 354.929 4.56311 355.037 4.13364C355.201 3.48944 354.149 3.22102 350.285 2.79155C349.347 2.73786 347.821 2.57682 345.916 2.36208C345.675 3.75785 345.581 4.34837 345.309 5.42205C344.697 7.83781 343.425 11.7567 342.369 14.6019C339.654 22.0103 336.228 28.0229 331.557 33.8744C326.303 40.4775 321.59 44.5037 313.33 49.4963L313.474 50.0331Z" fill="#384459"/>
<path d="M382.96 46.0452C386.426 45.6158 388.605 45.0943 390.813 44.2046C395.971 42.1493 399.43 38.5909 400.556 34.1428C402.094 28.0689 398.105 23.7435 390.973 23.7435C386.209 23.7435 381.186 25.6454 377.643 28.7744C375.506 30.6457 373.893 32.9771 373.403 34.9097C373.085 36.1674 373.223 37.5172 373.757 38.4375C374.405 39.5418 374.552 39.9713 374.558 40.7075C374.558 41.8426 374.641 42.272 374.78 42.7322C375 43.2537 375.578 43.6218 376.282 43.6218C377.881 43.6218 380.163 41.9346 383.081 38.6215C386.323 34.9097 389.042 30.615 389.663 28.1609C389.966 26.9645 389.824 26.1363 389.023 24.8785C389.646 24.8172 389.902 24.8172 390.318 24.8172C395.818 24.8172 398.352 27.9462 397.024 33.1918C396.223 36.3515 394.485 39.051 391.783 41.2597C389.359 43.2537 386.619 44.6034 382.941 45.6158L382.96 46.0452ZM388.36 24.9706C388.392 24.9706 388.443 25.4 388.445 25.6454C388.471 25.9215 388.402 26.3203 388.317 26.6578C387.975 28.0075 386.371 30.5537 384.042 33.4372C381.008 37.2104 378.252 39.7566 377.197 39.7566C376.11 39.7566 375.574 37.5785 376.11 35.4619C376.762 32.8851 378.638 30.2776 381.38 28.1609C383.678 26.4123 385.63 25.5227 388.36 24.9706Z" fill="#384459"/>
<path d="M407.238 27.3326C407.752 29.8481 408.935 30.8604 411.461 30.8604C412.261 30.8604 412.812 30.8297 413.579 30.707C410.577 35.6153 407.862 39.2657 405.828 41.1063C404.923 41.9039 404.773 42.1186 404.563 42.9469C404.322 43.8979 404.339 45.0943 404.656 45.7385C404.802 46.0452 405.163 46.26 405.547 46.26C406.058 46.26 406.576 45.9839 407.028 45.4624C407.535 44.8488 408.326 43.6218 409.929 40.9529C412.883 36.1061 412.883 36.1061 413.941 34.3268C415.655 31.4739 415.655 31.4739 416.35 30.3696C422.631 28.8051 425.229 27.7621 425.493 26.7191C425.594 26.3203 425.512 26.0136 425.207 25.8295C424.805 25.5227 423.94 25.2773 423.364 25.2773C423.012 25.2773 422.59 25.4307 422.16 25.7375C420.776 26.6578 420.083 26.9952 418.025 27.6701C419.425 25.5534 419.955 24.8479 420.55 24.265C421.217 23.6515 421.273 23.5594 421.366 23.1913C421.506 22.6392 421.11 22.0563 420.339 21.6882C419.32 21.1667 418.023 20.8599 416.872 20.8599C416.008 20.8599 415.769 20.9213 415.108 21.2587C416.093 21.5348 416.462 21.7189 416.761 22.0563C417.115 22.4244 417.207 22.9459 417.059 23.5288C416.787 24.6024 415.977 26.4123 414.881 28.4677C413.46 28.7744 412.11 28.9278 410.927 28.9278C409.328 28.9278 408.509 28.4983 407.604 27.1486L407.238 27.3326ZM420.034 33.3759C422.084 32.7317 424.096 32.3636 425.663 32.3636C425.855 32.3636 426.111 32.3636 426.463 32.3636L422.495 35.2778L422.617 35.5539C423.055 35.3392 423.166 35.2778 423.604 35.0631C424.879 34.4496 424.879 34.4496 425.126 34.3575C426.234 33.8974 427.216 33.6826 428.111 33.6826L429.351 33.7133C430.406 33.7133 431.026 33.2839 431.244 32.4249C431.555 31.1979 430.389 30.3696 428.279 30.3696C425.752 30.3696 422.65 31.3819 419.984 33.0691L420.034 33.3759ZM417.822 38.0694C417.19 39.051 416.844 39.7872 416.611 40.7075C416.183 42.3947 416.49 43.8365 417.456 44.8182C418.528 45.8918 420.747 46.4747 423.817 46.4747C427.111 46.4747 428.706 45.9839 428.978 44.9102C429.094 44.45 429.02 44.1126 428.786 43.7752C428.317 43.1003 427.337 42.5481 426.698 42.5481C426.506 42.5481 426.274 42.5788 426.027 42.6708C424.639 43.1003 423.809 43.223 422.402 43.223C418.628 43.223 417.124 41.9653 417.792 39.3271C417.862 39.051 417.971 38.7442 418.183 38.1614L417.822 38.0694Z" fill="#384459"/>
<path d="M443.088 24.2957C444.235 25.8295 444.402 26.8111 444.166 30.6457C442.097 31.8727 440.785 32.8851 439.524 34.2041C438.294 35.5232 437.323 37.0877 437.004 38.3454C436.802 39.143 436.96 39.9099 437.436 40.5541C438.017 41.2904 438.059 41.5051 437.962 42.5174C437.851 43.7138 438.223 44.266 439.182 44.266C439.982 44.266 440.859 43.9592 442.173 43.1923C443.407 42.4868 444.456 41.7505 445.283 41.0143C446.076 42.3027 446.936 42.9469 447.799 42.9469C448.471 42.9469 449.051 42.5481 449.199 41.9653C449.331 41.4438 449.225 41.1063 448.57 40.1554C448.174 39.5725 448.061 39.3884 447.849 38.8363C450.825 35.922 453.313 32.793 455.873 28.7438C457.393 28.9278 458.284 29.3266 459.065 30.1549C460.226 31.3819 460.519 33.2532 459.952 35.4925C459.346 37.8853 457.971 40.0326 455.938 41.8732C453.547 43.9899 451.213 45.1249 446.626 46.444L446.612 46.7508C450.104 46.4747 452.395 46.0145 454.659 45.1556C459.427 43.3764 462.546 40.2781 463.525 36.4128C464.721 31.6887 461.856 28.0995 456.504 27.6394C457.349 26.1976 457.986 24.8172 458.142 24.2036C458.289 23.6208 458.19 23.13 457.755 22.7005C457.247 22.179 456.253 21.8109 455.39 21.8109C454.59 21.8109 453.928 22.0256 452.55 22.6698L452.544 22.9459C453.007 22.8846 453.199 22.8846 453.487 22.8846C454.606 22.8846 454.937 23.222 454.711 24.1116C454.486 25.0012 454.11 25.9829 453.331 27.6701C450.527 28.0075 448.907 28.4677 446.421 29.572C446.463 26.6271 445.734 25.3387 443.43 24.0809L443.088 24.2957ZM444.156 32.4556C443.951 35.0324 444.03 36.9957 444.421 39.1124C442.808 40.4314 441.279 41.2904 440.48 41.2904C439.712 41.2904 439.279 39.9713 439.597 38.7136C440.18 36.4128 441.597 34.4802 444.156 32.4556ZM446.431 30.9218C448.604 29.664 450.144 29.1425 452.795 28.7744C451.178 31.75 449.232 34.5109 447.067 36.873C446.762 35.6766 446.652 34.8483 446.589 33.836C446.483 31.4739 446.483 31.4739 446.431 30.9218Z" fill="#384459"/>
<path d="M478.898 46.0452C482.365 45.6158 484.544 45.0943 486.752 44.2046C491.909 42.1493 495.368 38.5909 496.495 34.1428C498.033 28.0689 494.043 23.7435 486.912 23.7435C482.147 23.7435 477.124 25.6454 473.582 28.7744C471.445 30.6457 469.831 32.9771 469.342 34.9097C469.023 36.1674 469.161 37.5172 469.696 38.4375C470.344 39.5418 470.491 39.9713 470.496 40.7075C470.496 41.8426 470.58 42.272 470.719 42.7322C470.939 43.2537 471.517 43.6218 472.221 43.6218C473.819 43.6218 476.102 41.9346 479.019 38.6215C482.262 34.9097 484.98 30.615 485.602 28.1609C485.905 26.9645 485.762 26.1363 484.962 24.8785C485.585 24.8172 485.841 24.8172 486.256 24.8172C491.757 24.8172 494.29 27.9462 492.962 33.1918C492.162 36.3515 490.423 39.051 487.721 41.2597C485.297 43.2537 482.557 44.6034 478.879 45.6158L478.898 46.0452ZM484.299 24.9706C484.331 24.9706 484.382 25.4 484.384 25.6454C484.41 25.9215 484.341 26.3203 484.255 26.6578C483.914 28.0075 482.309 30.5537 479.98 33.4372C476.946 37.2104 474.191 39.7566 473.135 39.7566C472.048 39.7566 471.512 37.5785 472.048 35.4619C472.701 32.8851 474.576 30.2776 477.319 28.1609C479.616 26.4123 481.569 25.5227 484.299 24.9706Z" fill="#384459"/>
<path d="M531.458 26.305C530.619 26.305 529.652 26.1439 528.727 25.8218L528.503 27.8081C529.536 27.486 530.054 27.4323 531.173 27.4323H531.397C531.594 33.2839 532.245 36.2365 534.075 39.6185C530.27 43.3764 527.57 45.4164 522.96 48.1542C524.122 42.6785 524.76 39.9406 525.766 35.968L529.422 21.5271H555.725C556.005 21.5271 556.2 21.4198 556.241 21.2587C556.268 21.1513 556.197 20.9903 556.07 20.8293C554.194 18.7356 553.56 18.1451 551.39 16.1051C549.18 17.984 548.484 18.5209 546.161 20.3998H508.553C507.434 20.3998 506.244 20.2387 505.038 19.9166L504.927 21.9029C506.17 21.6345 506.981 21.5271 508.268 21.5271H510.115L505.221 40.8532C503.389 41.0143 502.648 41.068 501.641 41.068C501.249 41.068 500.633 41.068 499.864 41.0143C500.067 47.7247 500.143 48.53 500.815 48.53C501.374 48.53 501.873 47.8858 502.449 46.2753C509.301 43.9669 515.023 41.9269 518.97 40.2627C518.452 42.088 518.452 42.088 516.544 48.9595C516.285 49.9795 516.524 50.1405 518.259 50.1405C521.617 50.1405 522.469 49.8721 522.81 48.7447C528.324 47.0805 531.503 45.5774 535.985 42.4638C537.524 44.3427 539.172 45.7921 541.618 47.4026C542.771 48.1542 544.259 48.9058 544.539 48.9058C544.819 48.9058 545.041 48.6911 545.428 48.0468C545.87 47.1879 546.688 46.1679 547.563 45.3627C548.744 44.2353 549.496 43.6985 551.114 43.0543L551.319 42.4638C545.815 41.6585 543.585 40.9606 540.269 39.028C543.465 36.1291 545.31 33.9281 548.59 29.1502C550.656 28.506 551.298 28.1839 551.42 27.7008C551.474 27.486 551.417 27.2713 551.051 26.9492C549.388 25.3387 548.895 24.8555 547.191 23.4061C545.493 24.5871 544.992 25.0166 543.267 26.305H531.458ZM515.767 21.5271H523.714L522.382 26.7881H514.435L515.767 21.5271ZM514.149 27.9155H522.096L520.778 33.1228H512.831L514.149 27.9155ZM512.545 34.2502H520.492L519.255 39.1354C515.58 39.7259 513.204 40.048 511.036 40.209L512.545 34.2502ZM543.037 27.4323C540.635 31.8344 539.542 33.4986 536.977 36.5585C534.258 34.0354 533.235 31.8881 532.46 27.4323H543.037ZM519.63 15.9977H543.191L542.892 17.1788C542.715 17.8766 543.01 18.0377 544.577 18.0377C547.879 18.0377 548.73 17.7693 549.058 16.6956C550.02 12.4546 550.698 9.55569 551.079 8.05255L551.677 5.69047C553.378 4.93889 553.908 4.61679 554.03 4.13364C554.084 3.91891 553.915 3.70417 553.562 3.32839C551.477 1.39578 551.477 1.39578 549.872 0C548.216 1.23472 547.729 1.61051 546.129 2.84523H523.464C520.894 1.50314 520.093 1.12736 517.469 0C516.984 2.57682 516.795 3.54312 515.939 6.92519C514.947 10.8441 514.333 13.0451 513.173 16.964C512.942 17.8766 513.139 17.984 515.433 17.984C518.567 17.984 519.168 17.823 519.412 16.8567L519.63 15.9977ZM545.012 8.80412H521.451L522.675 3.97259H546.236L545.012 8.80412ZM544.727 9.93147L543.476 14.8704H519.915L521.166 9.93147H544.727Z" fill="#384459"/>
<path d="M592.859 6.60309L593.716 3.22102C595.975 2.25471 596.101 2.20103 596.196 1.82525C596.372 1.12736 595.013 0.751571 591.653 0.536836C590.771 0.483153 589.455 0.375787 587.705 0.214735C587.467 2.03998 587.319 2.84523 587.088 3.75785L586.367 6.60309H569.354C567.955 6.60309 566.807 6.49572 565.167 6.11993L565.112 8.10623C566.342 7.89149 567.95 7.73044 569.125 7.73044H615.295C615.575 7.73044 615.84 7.56939 615.88 7.40834C615.908 7.30098 615.879 7.19361 615.752 7.03256C613.469 4.77785 612.694 4.07996 610.258 1.98629L604.836 6.60309H592.859ZM580.21 12.1325C577.696 10.7904 576.896 10.4146 574.09 9.34095C573.59 11.7567 573.333 12.9914 572.708 15.4609C571.974 18.3598 571.919 18.5745 570.677 22.8155C570.557 23.5134 570.908 23.6745 572.307 23.6745C576.056 23.6745 576.531 23.5671 576.917 22.7082L577.243 21.4198H594.704L594.337 22.8692C594.272 23.5671 594.553 23.7819 595.673 23.7819C597.184 23.7819 599.309 23.5671 599.867 23.3524C600.23 23.245 600.396 23.0303 600.588 22.4934C600.778 21.7419 600.914 21.205 601.009 20.8293C601.429 18.9503 601.783 17.5545 601.81 17.4472C602.163 16.0514 602.218 15.8367 602.53 14.6019C604.05 13.9041 604.663 13.4746 604.771 13.0451C604.826 12.8304 604.712 12.6157 604.444 12.3472C602.727 10.9515 602.151 10.5757 600.337 9.34095C598.764 10.4683 598.277 10.8441 596.776 12.1325H580.21ZM579.309 13.2599H596.77L594.989 20.2924H577.528L579.309 13.2599ZM578.257 31.7807C575.897 30.4923 575.153 30.1165 572.57 29.0428C571.977 32.0491 571.624 33.4449 570.604 37.4712C569.802 40.6385 569.53 41.7122 568.696 44.3427C568.575 45.0406 568.87 45.2016 569.934 45.2016C571.277 45.2016 572.871 45.0942 573.458 44.9869C574.101 44.8795 574.309 44.7185 574.544 44.2353L575.237 41.4974H586.486L586.214 42.5711C586.107 43.2153 586.402 43.3764 587.633 43.3764C589.2 43.3764 590.696 43.2153 591.296 43.0543C591.673 42.8932 591.895 42.6785 592.087 42.1417C592.155 41.8732 592.209 41.6585 592.236 41.5511L593.458 36.5049C593.635 35.807 593.771 35.2701 594.002 34.3575C595.966 33.2302 595.966 33.2302 596.075 32.8007C596.116 32.6396 596.087 32.5323 595.862 32.3175C594.326 30.8681 593.819 30.4386 592.102 29.0428L588.442 31.7807H578.257ZM577.412 32.9081H588.661L586.771 40.3701H575.522L577.412 32.9081ZM569.078 26.0366C566.506 24.4797 565.677 23.9966 562.841 22.6008C562.288 25.446 561.352 29.3649 559.884 35.1628C558.497 40.6385 557.49 44.3964 556.153 49.0132C556.005 49.8184 556.286 50.0331 557.405 50.0331C561.659 50.0331 562.315 49.8721 562.641 48.5837L565.236 38.1154L568.009 27.1639H601.084L596.911 43.6448C596.761 44.2353 596.539 44.45 596.064 44.5574C591.516 44.3964 591.236 44.3964 589.206 44.2353L588.987 44.8795C591.748 45.47 592.548 45.8458 593.017 46.8658C593.246 47.51 593.294 48.4226 593.135 49.4963C593.012 49.9795 593.153 50.0868 593.601 50.0868C595.615 50.0868 598.019 49.6574 599.455 49.0668C601.324 48.3153 602.032 47.51 602.605 45.47C603.176 43.2153 603.176 43.2153 603.459 41.8732C604.355 38.1154 604.477 37.6322 604.763 36.5049L606.707 28.8281C608.715 27.9692 609.245 27.6471 609.38 27.1102C609.421 26.9492 609.364 26.7344 609.082 26.5197C607.307 24.9092 606.702 24.4261 604.746 22.8692C602.994 24.265 602.437 24.6945 600.81 26.0366H569.078Z" fill="#384459"/>
<path d="M622.806 46.0452C626.273 45.6158 628.451 45.0943 630.659 44.2046C635.817 42.1493 639.276 38.5909 640.403 34.1428C641.941 28.0689 637.951 23.7435 630.82 23.7435C626.055 23.7435 621.032 25.6454 617.49 28.7744C615.353 30.6457 613.739 32.9771 613.25 34.9097C612.931 36.1674 613.069 37.5172 613.604 38.4375C614.251 39.5418 614.398 39.9713 614.404 40.7075C614.404 41.8426 614.487 42.272 614.627 42.7322C614.846 43.2537 615.425 43.6218 616.128 43.6218C617.727 43.6218 620.009 41.9346 622.927 38.6215C626.169 34.9097 628.888 30.615 629.509 28.1609C629.812 26.9645 629.67 26.1363 628.869 24.8785C629.493 24.8172 629.748 24.8172 630.164 24.8172C635.665 24.8172 638.198 27.9462 636.87 33.1918C636.07 36.3515 634.331 39.051 631.629 41.2597C629.205 43.2537 626.465 44.6034 622.787 45.6158L622.806 46.0452ZM628.207 24.9706C628.239 24.9706 628.29 25.4 628.291 25.6454C628.318 25.9215 628.248 26.3203 628.163 26.6578C627.821 28.0075 626.217 30.5537 623.888 33.4372C620.854 37.2104 618.098 39.7566 617.043 39.7566C615.956 39.7566 615.42 37.5785 615.956 35.4619C616.609 32.8851 618.484 30.2776 621.227 28.1609C623.524 26.4123 625.476 25.5227 628.207 24.9706Z" fill="#384459"/>
<path d="M676.57 3.65049C674.349 2.25471 673.605 1.87893 671.175 0.644205C670.674 2.84523 670.483 3.5968 670.021 5.42205L669.908 5.20731C668.313 3.32839 667.833 2.79155 666.141 1.07368C664.334 2.68418 663.807 3.22102 662.112 4.83153H655.62C654.445 4.83153 653.576 4.72416 652.259 4.40206L652.146 6.17362C653.418 6.01257 653.991 5.95888 655.334 5.95888H657.573L654.12 19.5945H652.329C651.098 19.5945 650.398 19.4872 649.024 19.1651L648.911 20.9366C650.295 20.7756 650.98 20.7219 652.1 20.7219H653.835L650.151 35.2701C646.659 36.0217 645.96 36.1291 643.835 36.3438C644.133 42.6785 644.353 44.0206 644.969 44.0206C645.472 44.0206 645.859 43.3764 646.476 41.6048C656.08 36.827 658.881 35.2701 663.336 32.2639L663.15 31.6733C660.443 32.6396 659.41 32.9618 656.352 33.767L659.655 20.7219H665.587C665.923 20.7219 666.118 20.6145 666.159 20.4535C666.186 20.3461 666.171 20.185 666.086 20.0777C665.081 18.5209 664.756 18.0377 663.556 16.5882C662.153 17.9303 661.778 18.3061 660.388 19.5945H659.94L663.393 5.95888H669.27L669.926 5.79783C668.947 9.66305 668.947 9.66305 667.408 15.2998L667.381 15.4072C667.15 16.3198 667.516 16.6419 668.803 16.6419C670.202 16.6419 671.866 16.4809 672.48 16.2661C672.856 16.1051 673.023 15.8904 673.215 15.3535L673.378 14.7093H692.797L692.661 15.2462C692.541 15.944 692.878 16.1588 694.165 16.1588C694.445 16.1588 694.893 16.1588 695.41 16.1051C694.45 16.803 693.824 17.2861 692.307 18.4135H670.201C668.802 18.4135 667.766 18.3061 666.56 17.984L666.503 19.7556C667.831 19.5945 668.516 19.5408 669.916 19.5408H700.192C700.528 19.5408 700.723 19.4335 700.764 19.2724C700.791 19.1651 700.762 19.0577 700.649 18.843C699.184 17.5545 699.184 17.5545 697.367 15.8904C698.317 15.6756 698.595 15.4609 698.799 14.6556C699.652 10.8441 699.936 9.502 700.793 6.11993C702.368 5.42205 702.842 5.09995 702.95 4.67048C703.032 4.34838 702.876 4.07996 702.425 3.65049C700.918 2.3084 700.398 1.93261 698.765 0.644205C697.152 1.93261 696.665 2.3084 695.038 3.65049H676.57ZM693.083 13.582H689.781L692.01 4.77785H695.312L693.083 13.582ZM684.968 13.582H681.666L683.895 4.77785H687.197L684.968 13.582ZM676.853 13.582H673.663L675.893 4.77785H679.082L676.853 13.582ZM688.984 23.1376H673.146C670.815 21.9566 670.057 21.6345 667.503 20.6682C667.043 22.7082 666.854 23.6745 666.419 25.3924C665.984 27.1102 665.507 28.7744 664.375 32.8007L664.362 32.8544C664.158 33.6596 664.426 33.9281 665.601 33.9281C667.504 33.9281 668.944 33.767 669.502 33.5523C669.809 33.4449 670.044 33.1765 670.223 32.6933L670.427 31.8881H674.008C670.742 34.8407 668.586 36.5049 664.73 39.1354C659.607 42.5711 655.761 44.7185 649.877 47.4026L650.021 47.9395C654.531 46.7048 657.35 45.7385 661.046 44.1816C666.318 41.9269 669.564 40.1554 673.488 37.2564L672.345 41.5511C671.623 44.1816 671.2 45.6311 670.204 49.1205C670.177 49.2279 670.15 49.3353 670.136 49.3889C669.96 50.0868 670.326 50.4089 671.389 50.4089C671.389 50.4089 671.501 50.4089 671.613 50.4089C671.725 50.4089 671.949 50.4089 672.173 50.4089C673.74 50.4089 675.137 50.1942 675.639 49.9795C675.904 49.8184 676.07 49.6037 676.248 49.1205C677.156 45.0943 677.156 45.0943 678.283 40.4238L680.059 32.747C681.394 39.1891 683.479 43.108 687.268 46.49C688.494 47.6174 689.646 48.369 690.15 48.369C690.374 48.369 690.569 48.2616 690.762 47.9395C692.463 45.2016 693.714 44.0206 696.098 43.0006L696.277 42.5174C691.837 41.9269 688.09 40.3701 685.402 38.1691C688.127 37.7933 689.608 37.4712 692.89 36.6659C693.8 36.827 694.389 36.9343 694.668 36.9343C695.116 36.9343 695.506 36.7196 695.588 36.3975C695.683 36.0217 695.641 35.968 691.533 32.9617C692.483 32.747 692.831 32.4786 693.007 31.7807C693.794 28.4523 694.268 26.3587 694.5 25.446C696.035 24.9092 696.508 24.5871 696.617 24.1576C696.671 23.9429 696.571 23.6745 696.149 23.3524C694.671 22.1177 694.206 21.7419 692.574 20.4535L688.984 23.1376ZM687.216 31.8881L687.189 31.9954C687.162 32.1028 687.148 32.1565 687.134 32.2102C686.958 32.9081 687.281 33.1765 688.345 33.1765L689.142 33.1228C689.31 33.1228 689.366 33.1228 689.646 33.1228C687.951 34.7333 686.768 35.6459 684.303 37.2028C682.484 35.3238 681.691 34.0354 680.948 31.8881H687.216ZM687.501 30.7607H670.712L672.357 24.265H689.146L687.501 30.7607Z" fill="#384459"/>
<path d="M745.322 7.51571C744.027 10.1999 742.423 12.7767 740.234 15.6756H733.35C734.772 14.9241 735.854 13.743 736.126 12.6693C736.589 10.8441 735.236 9.55569 730.66 7.51571L729.991 7.94518C730.493 9.502 730.653 10.4146 730.566 11.8641C730.351 14.9241 730.351 14.9241 730.664 15.6756H723.948C722.789 14.0651 722.633 13.7967 721.377 12.3472L717.848 15.6756H717.289L720.211 4.13364C722.055 3.70417 722.822 3.32839 722.958 2.79155C723.121 2.14735 722.392 1.93261 718.71 1.66419C717.828 1.61051 716.456 1.50314 714.706 1.34209C714.128 4.50943 713.776 6.11994 713.042 9.01885L711.356 15.6756H708.055C707.047 15.6756 706.081 15.5146 704.973 15.2462L704.777 17.1251C705.895 16.9103 706.818 16.803 707.769 16.803H711.071L706.802 33.6596C703.98 34.1965 702.751 34.4112 700.346 34.6259C700.867 42.7322 700.867 42.7322 701.539 42.7322C702.099 42.7322 702.458 42.1953 703.087 40.1554C709.124 37.3101 715.019 34.1428 720.493 30.8681L720.363 30.2776C716.859 31.2976 715.602 31.6197 713.102 32.2102L717.003 16.803H757.185C757.521 16.803 757.772 16.6956 757.813 16.5346C757.84 16.4272 757.825 16.2661 757.642 16.1051C755.906 14.1188 755.328 13.5283 753.259 11.7567C750.853 13.743 750.853 13.743 748.461 15.6756H742.64C745.399 14.0651 746.832 13.0451 749.643 11.0051C751.517 10.8978 752.062 10.7367 752.184 10.2536C752.334 9.66305 751.477 9.28727 746.609 7.51571H758.418C758.866 7.51571 759.061 7.40834 759.101 7.24729C759.129 7.13992 759.114 6.97887 758.93 6.81782C757.083 4.83153 756.435 4.29469 754.267 2.46945C752.279 4.13364 751.653 4.61679 749.581 6.38835H743.425L744.241 3.16733C746.28 2.6305 746.977 2.3084 747.099 1.82525C747.14 1.66419 747.04 1.39578 746.899 1.28841C746.267 0.912623 746.113 0.85894 738.749 0.322104C738.413 2.09366 738.251 2.9526 737.911 4.29469L737.381 6.38835H728.539C727.364 6.38835 726.383 6.28099 725.01 5.95888L724.87 7.83781C725.987 7.62308 727.022 7.51571 728.253 7.51571H745.322ZM725.723 34.3038H734.565L733.179 39.7796C732.458 42.6248 732.458 42.6248 731.738 45.47L731.697 45.6311C730.922 48.6911 731.821 49.1205 738.649 49.1205C742.902 49.1205 746.202 48.9058 747.654 48.4763C748.98 48.1005 750.092 47.0269 750.418 45.7385C750.69 44.6648 750.376 43.9132 749.393 43.3764C748.859 43.0543 748.732 42.8932 748.854 42.4101C748.868 42.3564 748.963 41.9806 749.155 41.4438L751.439 34.4112L750.851 34.3038C746.912 40.7996 746.012 42.1417 745.179 43.0006C744.416 43.8058 743.634 44.0206 741.507 44.0206C738.037 44.0206 738.037 44.0206 738.336 42.8395L740.498 34.3038H741.617L741.386 35.2165C741.265 35.9143 741.363 35.968 742.93 35.968C745.449 35.968 746.734 35.7533 747.179 35.3238C747.332 35.1628 747.442 34.948 747.551 34.5186C748.416 30.4386 748.742 29.1502 750.387 22.6545C751.893 22.0103 752.297 21.7419 752.406 21.3124C752.487 20.9903 752.36 20.8292 751.909 20.3998C750.362 19.2187 749.897 18.843 748.238 17.6619C746.763 18.843 746.276 19.2187 744.663 20.5071H729.832C727.388 19.1114 726.587 18.7356 723.976 17.5545C723.504 19.8629 723.179 21.3661 722.513 23.9966C721.221 29.0965 720.608 31.2976 719.49 35.2701C719.232 36.2901 719.527 36.4512 721.43 36.4512C722.997 36.4512 723.626 36.3975 724.576 36.1828C723.311 39.1891 721.675 41.229 719.018 43.3227C715.679 45.8995 711.635 47.7247 705.185 49.55L705.12 50.2479C711.887 49.6037 715.142 48.9058 719.159 47.1879C724.11 45.0943 727.169 42.5174 730.199 37.847C731.93 37.4175 732.307 37.2564 732.429 36.7733C732.592 36.1291 732.326 36.0754 725.519 35.1091L725.723 34.3038ZM743.534 26.7344H727.64L728.931 21.6345H744.825L743.534 26.7344ZM743.248 27.8618L741.902 33.1765H726.009L727.354 27.8618H743.248Z" fill="#384459"/>
</svg>
