<svg width="244" height="75" viewBox="0 0 244 75" fill="none" xmlns="http://www.w3.org/2000/svg">
<rect width="244" height="75" fill="#007979"/>
<path d="M46.6894 35.6929C48.2134 36.4157 48.2134 38.5843 46.6894 39.3071L32.3568 46.1044C31.0298 46.7337 29.4998 45.7659 29.4998 44.2973L29.4998 30.7027C29.4998 29.2341 31.0298 28.2663 32.3568 28.8957L46.6894 35.6929Z" fill="#F2C94C"/>
<path d="M63.76 30.416C63.056 31.904 61.776 33.376 60.432 34.272C60.88 34.56 61.648 35.168 62 35.52C63.344 34.464 64.768 32.736 65.648 30.96L63.76 30.416ZM63.632 32.096L63.168 33.792H74.656V32.096H63.632ZM60.768 35.824V37.536H75.232V35.824H60.768ZM61.04 39.584V41.296H75.008V39.584H61.04ZM65.776 32.704V40.48H67.392V32.704H65.776ZM62.944 32.704V40.496H64.64V32.704H62.944ZM68.56 32.704V40.496H70.16V32.704H68.56ZM71.376 32.704V40.496H73.136V32.704H71.376ZM65.296 42.192C65.488 43.184 65.6 44.496 65.6 45.28L67.488 45.008C67.472 44.224 67.28 42.96 67.072 41.984L65.296 42.192ZM68.48 42.224C68.848 43.216 69.2 44.512 69.312 45.296L71.232 44.912C71.088 44.128 70.688 42.864 70.288 41.92L68.48 42.224ZM71.664 42.144C72.384 43.168 73.232 44.576 73.584 45.456L75.536 44.8C75.136 43.904 74.224 42.544 73.504 41.568L71.664 42.144ZM62.416 41.632C62.048 42.8 61.344 44.048 60.608 44.72L62.464 45.456C63.232 44.624 63.92 43.312 64.288 42.08L62.416 41.632ZM79.024 30.496V45.408H80.8V30.496H79.024ZM76.608 35.744V37.536H83.168V35.744H76.608ZM78.688 36.704C78.24 38.288 77.264 40.512 76.304 41.696C76.592 42.24 77.008 43.088 77.184 43.68C78.24 42.144 79.232 39.36 79.744 37.216L78.688 36.704ZM80.768 37.632L79.888 38.384C80.464 39.168 81.536 40.944 81.952 41.856L83.136 40.352C82.784 39.904 81.232 38.048 80.768 37.632ZM76.576 31.728C76.96 32.896 77.264 34.448 77.296 35.456L78.736 35.072C78.656 34.064 78.336 32.544 77.92 31.376L76.576 31.728ZM81.856 31.296C81.68 32.432 81.296 34.048 80.976 35.072L82.176 35.408C82.576 34.464 83.056 32.944 83.472 31.648L81.856 31.296ZM87.904 30.4V45.424H89.712V30.4H87.904ZM83.12 40.416L83.424 42.208L91.632 40.72L91.344 38.944L83.12 40.416ZM84.032 32.592C84.928 33.168 86.048 34.048 86.528 34.672L87.536 33.216C87.008 32.624 85.872 31.824 84.976 31.28L84.032 32.592ZM83.312 36.624C84.24 37.168 85.408 38.032 85.952 38.624L86.912 37.104C86.336 36.512 85.136 35.744 84.208 35.248L83.312 36.624ZM100.848 34.976H105.008V37.312H100.848V34.976ZM98.992 33.328V38.944H106.976V33.328H98.992ZM104.752 30.384C104.56 31.2 104.144 32.336 103.808 33.056L105.456 33.536C105.824 32.88 106.304 31.888 106.736 30.896L104.752 30.384ZM99.2 31.04C99.664 31.856 100.16 32.96 100.336 33.68L102.112 33.04C101.904 32.32 101.408 31.264 100.896 30.496L99.2 31.04ZM103.216 38.576V43.104C103.216 44.752 103.52 45.312 104.944 45.312C105.2 45.312 105.712 45.312 106 45.312C107.168 45.312 107.6 44.64 107.76 42.064C107.264 41.936 106.496 41.632 106.144 41.328C106.112 43.328 106.032 43.632 105.792 43.632C105.68 43.632 105.344 43.632 105.264 43.632C105.04 43.632 105.024 43.568 105.024 43.088V38.576H103.216ZM100.48 38.64C100.336 40.832 100.048 42.8 97.856 43.984C98.304 44.32 98.848 45.024 99.088 45.52C101.712 43.984 102.208 41.488 102.4 38.64H100.48ZM93.248 35.44V36.88H97.872V35.44H93.248ZM93.344 30.912V32.368H97.888V30.912H93.344ZM93.248 37.68V39.12H97.872V37.68H93.248ZM92.464 33.136V34.64H98.448V33.136H92.464ZM94.128 39.936V41.456H96.352V43.296H94.128V44.8H98V39.936H94.128ZM93.2 39.936V45.44H94.816V39.936H93.2ZM110.112 31.296V33.024H112.928V39.36H110.112V41.12H114.704V31.296H110.112ZM110.128 35.296V37.008H113.632V35.296H110.128ZM116.96 31.056V32.832H121.872V31.056H116.96ZM116.96 34.88V36.608H121.872V34.88H116.96ZM116.928 38.672V40.384H121.856V38.672H116.928ZM109.088 31.296V42.512H110.864V31.296H109.088ZM121.152 31.056V43.216C121.152 43.504 121.056 43.6 120.768 43.6C120.496 43.6 119.52 43.616 118.656 43.568C118.928 44.064 119.232 44.896 119.312 45.424C120.672 45.424 121.584 45.376 122.224 45.072C122.848 44.768 123.056 44.24 123.056 43.248V31.056H121.152ZM115.808 31.056V36.848C115.808 39.296 115.568 42.304 112.864 44.272C113.28 44.528 114.016 45.184 114.304 45.568C117.264 43.392 117.696 39.632 117.696 36.864V31.056H115.808ZM125.472 43.088L125.728 44.96C128.608 44.848 132.832 44.656 136.752 44.432L136.816 42.672C132.784 42.848 128.336 43.008 125.472 43.088ZM125.392 38.32V40.112H138.704V38.32H125.392ZM128.24 35.248V37.008H135.744V35.248H128.24ZM129.312 39.488C128.912 40.832 128.144 42.608 127.488 43.776L129.168 44.336C129.888 43.264 130.752 41.6 131.504 40.096L129.312 39.488ZM133.28 41.136C134.656 42.416 136.192 44.24 136.864 45.456L138.64 44.384C137.904 43.168 136.416 41.488 134.976 40.256L133.28 41.136ZM131.984 32.288C133.344 34.144 136.048 36.16 138.448 37.28C138.8 36.704 139.232 36.016 139.696 35.536C137.152 34.624 134.608 32.8 132.912 30.448H130.88C129.696 32.336 127.136 34.624 124.4 35.824C124.8 36.24 125.312 36.96 125.536 37.424C128.192 36.16 130.688 34.112 131.984 32.288ZM140.592 39.248L142.528 41.232C142.816 40.816 143.184 40.24 143.552 39.728C144.24 38.816 145.36 37.232 146 36.416C146.464 35.84 146.768 35.76 147.344 36.368C148.08 37.216 149.28 38.752 150.272 39.92C151.296 41.12 152.656 42.656 153.792 43.744L155.456 41.824C153.936 40.464 152.56 39.04 151.536 37.92C150.592 36.88 149.328 35.232 148.224 34.176C147.056 33.04 146.032 33.152 144.912 34.432C143.904 35.584 142.688 37.232 141.936 38C141.456 38.496 141.072 38.864 140.592 39.248ZM157.552 32.544V42.16H159.456V34.384H168.528V42.064H170.528V32.544H157.552ZM158.8 36.016V37.776H169.472V36.016H158.8ZM158.8 39.472V41.312H169.504V39.472H158.8ZM162.944 30.416V45.44H164.944V30.416H162.944ZM177.936 31.312L175.36 31.296C175.488 31.92 175.552 32.688 175.552 33.456C175.552 34.832 175.408 39.024 175.408 41.168C175.408 43.904 177.088 45.056 179.712 45.056C183.36 45.056 185.632 42.928 186.672 41.392L185.216 39.616C184.048 41.36 182.384 42.88 179.744 42.88C178.496 42.88 177.536 42.352 177.536 40.736C177.536 38.752 177.648 35.184 177.728 33.456C177.76 32.816 177.84 31.984 177.936 31.312ZM194.464 31.088V32.896H197.84V31.088H194.464ZM196.88 31.088V31.936H197.184C197.472 36.592 198.528 40.624 201.936 42.656C202.288 42.208 202.992 41.504 203.44 41.2C200.096 39.504 199.136 35.648 198.896 31.088H196.88ZM196.816 34.416C196.304 37.504 195.072 39.888 192.832 41.232C193.264 41.552 194.016 42.304 194.304 42.672C196.672 41.024 198.096 38.304 198.8 34.704L196.816 34.416ZM192.432 36.656H188.688V38.432H190.56V42.544H192.432V36.656ZM192.432 41.712H190.672C189.936 42.288 189.072 42.848 188.352 43.296L189.296 45.296C190.16 44.592 190.88 43.984 191.584 43.36C192.624 44.608 193.952 45.072 195.92 45.152C197.84 45.232 201.072 45.2 203.008 45.104C203.088 44.528 203.408 43.6 203.616 43.152C201.456 43.328 197.824 43.376 195.952 43.296C194.288 43.232 193.072 42.768 192.432 41.712ZM188.72 31.936C189.664 32.656 190.816 33.728 191.296 34.48L192.832 33.216C192.272 32.464 191.104 31.456 190.144 30.784L188.72 31.936ZM207.408 31.904L207.488 33.952C207.904 33.904 208.464 33.84 208.8 33.824C209.52 33.776 210.912 33.728 211.552 33.712C211.072 34.704 210.416 36.272 209.856 37.536C209.28 38.8 208.704 40.272 208.176 41.056C207.872 41.456 207.664 41.6 207.344 41.6C206.96 41.6 206.656 41.328 206.656 40.8C206.656 39.632 208 38.368 210.336 38.368C213.632 38.368 216.448 40.192 218.416 41.936L219.344 39.712C217.664 38.56 214.4 36.576 210.672 36.576C207.248 36.576 204.8 38.544 204.8 41.104C204.8 42.736 205.856 43.696 207.248 43.696C208.352 43.696 209.104 43.264 209.744 42.288C210.4 41.28 211.168 39.376 211.808 37.904C212.528 36.24 213.392 34.176 213.936 33.264C214.064 33.056 214.256 32.848 214.464 32.608L213.2 31.6C212.912 31.712 212.496 31.808 212.096 31.84C211.36 31.904 209.664 31.968 208.736 31.968C208.4 31.968 207.84 31.936 207.408 31.904ZM217.936 35.68L215.84 35.44C215.904 35.936 215.888 36.576 215.856 37.2C215.712 39.072 215.232 42.064 211.28 43.76L212.992 45.152C216.816 43.168 217.712 40.224 217.936 35.68Z" fill="white"/>
</svg>
