<svg width="343" height="48" viewBox="0 0 343 48" fill="none" xmlns="http://www.w3.org/2000/svg">
<rect y="14.1992" width="343" height="11.5369" fill="white"/>
<path d="M14.8215 4.09718L15.467 1.54835C16.3716 1.31015 16.6501 1.19104 16.7104 0.952833C16.7948 0.619342 16.5834 0.571699 13.0423 0.238208C12.8883 1.23868 12.8106 1.64364 12.5753 2.57265L12.1893 4.09718H9.78048C9.1845 4.09718 8.77441 4.04954 8.26428 3.90661L8.23302 4.71652C8.62964 4.62124 8.98333 4.59742 9.65381 4.59742H12.0626L11.1638 8.14672H8.28322C7.63757 8.14672 7.10331 8.09908 6.54352 7.95615L6.50623 8.78988C7.05788 8.67077 7.41157 8.64695 8.15655 8.64695H11.36L9.37544 16.484C8.83022 15.7932 8.6408 15.3644 8.44645 14.2687C8.88639 13.3158 9.08756 12.8156 9.57435 11.4816C10.336 11.2196 10.5897 11.1005 10.6379 10.9099C10.6681 10.7908 10.5989 10.6717 10.4123 10.6241C10.1693 10.505 10.0015 10.4812 7.27988 10.1477C7.20287 10.6479 7.15461 10.8385 7.07017 11.172C6.7746 12.3392 5.97203 14.626 5.30749 16.2696C4.47798 18.2706 3.81665 19.5092 2.50999 21.6293L2.75902 21.7246C5.25022 19.4378 6.71402 17.5798 8.09769 14.9595C8.188 17.9371 9.37527 19.8189 11.7602 20.7956C13.1799 21.3673 14.9069 21.5102 20.9164 21.5102C22.9527 21.5102 24.3245 21.4864 24.7835 21.4387C25.0627 21.4149 25.0936 21.3911 25.2948 20.8908C25.4651 20.4144 25.8213 19.8904 26.2527 19.4616C26.5606 19.1281 26.7706 18.9852 27.29 18.6993L27.3443 18.4849C24.1061 18.8184 20.2088 19.009 16.9557 19.009C14.1744 19.009 12.7636 18.7946 11.5049 18.1753L12.7475 13.2682H17.0436C17.1678 13.2682 17.2792 13.2205 17.3033 13.1253C17.3153 13.0776 17.2777 13.03 17.2334 12.9109C16.6002 12.0771 16.3934 11.8151 15.6548 11.0052C14.8222 11.7437 14.5632 11.9819 13.7185 12.768H12.8742L13.9177 8.64695H18.2883C18.4125 8.64695 18.5239 8.59931 18.542 8.52785C18.554 8.48021 18.5473 8.40875 18.466 8.33728C17.7396 7.47973 17.5019 7.24153 16.7076 6.45544C15.8998 7.19388 15.6717 7.40827 14.8639 8.14672H13.7961L14.6949 4.59742H19.3386C19.4627 4.59742 19.5741 4.54978 19.5922 4.47831C19.6103 4.40685 19.5976 4.35921 19.5224 4.26393C18.7529 3.47784 18.5153 3.23963 17.6962 2.45354C16.9004 3.14435 16.6414 3.38256 15.8645 4.09718H14.8215ZM21.4484 1.95331C20.9021 1.95331 20.3927 1.90567 19.8826 1.76274L19.8453 2.59647C20.3164 2.50119 20.7506 2.45354 21.3218 2.45354H26.4125L25.0854 7.69412H21.8075C20.722 6.9795 20.3541 6.76511 19.17 6.14577C18.906 7.38445 18.7861 7.95615 18.5991 8.6946L17.7124 12.1963C17.5435 12.8632 17.4892 13.0776 17.2841 13.8875L16.8498 15.6026C16.4644 17.2224 16.7571 17.3415 21.1028 17.3415C23.8841 17.3415 25.3734 17.2463 26.1726 17.0319C26.8665 16.8413 27.3288 16.3887 27.4796 15.7932C27.5882 15.3644 27.474 15.0309 27.2122 14.888C26.5208 14.5783 26.5208 14.5783 26.5871 14.3163C26.5992 14.2687 26.6354 14.1257 26.6716 13.9828L27.8293 10.1953L27.587 10.1715C26.037 12.9585 25.3682 14.0305 24.8878 14.5545C24.4444 15.0309 24.0786 15.1024 22.3403 15.1024C22.2907 15.1024 22.1913 15.1024 22.0672 15.1024C21.353 15.0786 20.8564 15.0786 20.5832 15.0786C19.7141 15.0786 19.614 14.9833 19.7528 14.4354L21.3332 8.19436H24.9588L24.7295 9.09955C24.627 9.5045 24.7579 9.57597 25.5525 9.57597C26.9928 9.57597 27.4015 9.43304 27.5463 8.86134C27.9671 7.00332 28.1655 6.12195 28.5395 4.64506L28.9074 3.19199C29.6684 2.83468 29.9093 2.66793 29.9635 2.45354C29.9877 2.35826 29.9185 2.23916 29.7433 2.04859C29.043 1.38161 28.8181 1.19104 28.0561 0.571699C27.2905 1.1434 27.0685 1.33396 26.3156 1.95331H21.4484Z" fill="#384459"/>
<path d="M55.0778 5.2644C55.2516 5.2644 55.3879 5.21676 55.406 5.1453C55.418 5.09765 55.3865 5.02619 55.33 4.95473C54.4854 4.07336 54.2229 3.83515 53.3293 3.04906C52.1384 4.02572 52.1384 4.02572 51.2064 4.76416H48.748C50.0464 4.04954 50.1638 3.97807 52.6344 2.26298C52.7337 2.26298 52.8082 2.26298 52.8331 2.26298C53.5284 2.26298 53.8505 2.16769 53.9048 1.95331C53.9712 1.69128 53.2858 1.35779 50.8888 0.428775C50.2885 1.52453 49.1642 3.12053 47.8043 4.76416H46.8358L47.7105 1.31014C48.5098 1.09576 48.7386 0.976653 48.7868 0.786086C48.8713 0.452595 48.5357 0.404954 45.455 0.214388C45.2694 1.1434 45.1857 1.57217 44.9565 2.47737L44.3774 4.76416H42.5398L43.4265 1.2625C44.2197 1.07194 44.4486 0.952833 44.5028 0.738446C44.533 0.619342 44.4578 0.524058 44.296 0.476417C44.047 0.381134 43.8544 0.357313 41.1462 0.166747C41.0223 1.04812 40.9446 1.45307 40.6792 2.50119L40.1062 4.76416H34.2208C33.6 4.76416 32.9973 4.6927 32.369 4.52595L32.3009 5.3835C32.7908 5.31204 33.374 5.2644 34.0942 5.2644H38.2164L37.9695 5.45497C38.4288 6.28869 38.5264 6.88421 38.5227 8.07525C38.5195 8.48021 38.539 8.59931 38.6894 8.78988H34.4679C33.8471 8.78988 33.3625 8.74224 32.7094 8.57549L32.6412 9.43304C33.3419 9.31394 33.7204 9.29012 34.3412 9.29012H40.9715L40.4287 11.434H35.2635C34.4936 11.434 33.9406 11.3625 33.2318 11.2196L33.1636 12.0772C33.8831 11.9819 34.4663 11.9342 35.1368 11.9342H40.302L39.7229 14.221H32.2731C31.6275 14.221 31.1677 14.1734 30.4153 14.0066L30.3162 14.888C30.9672 14.7689 31.6001 14.7213 32.1464 14.7213H37.56C36.2342 15.9361 35.5122 16.5316 34.2709 17.413C32.1835 18.8899 30.2791 19.938 27.8781 20.9861L27.9547 21.272C30.576 20.6288 31.8953 20.2239 33.5414 19.5092C35.5217 18.6517 36.9188 17.8418 39.2404 16.1267L38.8724 17.5798C38.7337 18.1276 38.0741 20.4383 37.6987 21.7246C37.5961 22.1295 37.7022 22.201 38.5217 22.201C40.0365 22.201 40.3834 22.1057 40.5101 21.6055C40.9785 19.4616 41.1956 18.6041 41.4852 17.4607L42.0884 15.0786C43.1624 17.6036 44.4146 19.0328 46.5151 20.1524C47.4186 20.605 48.7074 21.1052 49.0302 21.1052C49.2289 21.1052 49.2598 21.0814 49.5113 20.6765C50.2968 19.4378 50.8087 18.9852 51.7683 18.6279L51.8528 18.2944C48.797 18.1038 46.7075 17.6274 44.8756 16.7222C43.9284 16.2458 43.2913 15.7217 42.5017 14.7213H52.0126C52.2113 14.7213 52.3475 14.6736 52.3716 14.5783C52.3897 14.5069 52.3582 14.4354 52.2769 14.3639C51.4451 13.5302 51.1886 13.2682 50.2702 12.4821C49.3134 13.2205 49.0108 13.4349 48.0171 14.221H42.3055L42.8846 11.9342H50.4834C50.6572 11.9342 50.7935 11.8866 50.8176 11.7913C50.8297 11.7437 50.8041 11.6484 50.7229 11.5769C49.9535 10.7908 49.7098 10.5764 48.8538 9.83799C47.9896 10.505 47.7118 10.7194 46.8107 11.434H43.0113L43.5542 9.29012H52.7671C52.9161 9.29012 53.0523 9.24247 53.0704 9.17101C53.0885 9.09955 53.0509 9.05191 52.9945 8.98044C52.1875 8.14672 51.9001 7.90851 51.0005 7.14624C50.1055 7.83705 49.7968 8.07525 48.8709 8.78988H44.997C45.7948 8.38493 45.7948 8.38493 48.2367 6.9795C48.3051 7.00332 48.3796 7.00332 48.4045 7.00332C49.0749 7.00332 49.3971 6.90803 49.4574 6.66983C49.5237 6.4078 49.5237 6.4078 46.6098 5.2644H55.0778ZM46.3367 5.2644C45.6264 6.59836 44.975 7.50356 43.8298 8.78988H39.9062C40.5062 8.48021 40.9496 8.00379 41.0823 7.47973C41.2814 6.69365 40.5134 6.09813 38.2164 5.2644H46.3367ZM35.6933 0.714625C36.3601 1.90567 36.602 2.71557 36.591 3.73987C36.5711 4.40685 36.747 4.6927 37.1692 4.6927C37.8893 4.6927 38.938 3.78751 39.1371 3.00142C39.3784 2.04859 38.5667 1.42925 35.9402 0.524058L35.6933 0.714625Z" fill="#384459"/>
<path d="M56.037 11.3251C56.2036 11.7879 56.3652 12.0465 56.6506 12.2643C56.954 12.5229 57.5405 12.6727 58.1648 12.6727C58.2642 12.6727 58.4095 12.6591 58.64 12.6454C57.6225 13.6936 56.424 14.7281 55.7986 15.0684C55.2863 15.3542 55.2687 15.3678 55.1349 15.5039C55.0364 15.6128 54.9559 15.7626 54.9145 15.9259C54.7525 16.5657 54.9015 17.0421 55.2563 17.0421C55.4833 17.0421 55.6351 16.9468 56.1178 16.4976C57.5728 15.1228 58.7419 14.4286 59.6075 14.4286C59.9055 14.4286 60.123 14.5783 60.1921 14.8097C60.2401 15.0684 60.2379 15.2453 60.1211 15.7626C58.9869 16.3751 58.5701 16.6201 58.1502 16.9332C57.2576 17.6002 56.734 18.2672 56.5685 18.9205C56.4065 19.5603 56.5594 20.0775 57.0159 20.4042C57.5936 20.8126 58.5137 20.9895 60.0746 20.9895C61.3517 20.9895 62.3373 20.9079 62.9003 20.7581C63.2508 20.6628 63.5012 20.4587 63.5632 20.2137C63.6287 19.955 63.5239 19.6964 63.2776 19.4922C63.0421 19.3017 62.7183 19.1792 62.4913 19.1792C62.3636 19.1792 62.2574 19.2064 61.8539 19.3425C61.1744 19.5603 60.0722 19.71 59.1499 19.71C57.7025 19.71 57.1114 19.4106 57.2768 18.7572C57.4526 18.063 58.165 17.4913 59.8902 16.6746C59.7971 17.0421 59.7347 17.2327 59.6412 17.5457C59.4711 18.0494 59.4711 18.0494 59.4607 18.0902C59.3711 18.4441 59.5572 18.6619 59.9403 18.6619C60.2383 18.6619 60.5566 18.5258 60.7253 18.308C60.8483 18.1583 60.9525 17.8588 61.1214 17.1918C61.1559 17.0557 61.1628 17.0285 61.3654 16.1165C62.3873 15.6673 63.8031 15.2317 65.5241 14.8234C65.9598 14.7281 66.1362 14.5919 66.2051 14.3197C66.3843 13.6119 65.3976 12.5774 64.5603 12.5774C64.4184 12.5774 64.3299 12.591 64.0998 12.6591C64.552 12.8905 64.7561 13.1491 64.6872 13.4213C64.6562 13.5438 64.54 13.6663 64.3103 13.7888C63.9817 13.9658 63.3985 14.2516 62.9211 14.4558C61.6798 14.9867 61.6798 14.9867 61.4041 15.1228C61.3837 14.7553 61.3257 14.5919 61.1895 14.4014C60.9673 14.1019 60.5688 13.9386 60.1005 13.9386C59.4903 13.9386 58.8956 14.1019 57.9162 14.5511C58.1804 14.2925 58.1804 14.2925 58.9126 13.5302C59.1239 13.3124 59.2787 13.1491 59.8527 12.5638C61.0361 12.3732 62.0136 12.1554 62.9658 11.8696C63.964 11.5701 64.2573 11.4204 64.3297 11.1345C64.4193 10.7806 63.9701 10.4812 63.3458 10.4812C63.1897 10.4812 63.0516 10.522 62.914 10.6173C62.335 10.9984 62.1901 11.0665 60.8203 11.4884C61.1933 11.0801 61.5349 10.7398 61.8274 10.4812C62.0425 10.3042 62.1479 10.1681 62.1755 10.0592C62.2341 9.82778 62.0588 9.62361 61.7028 9.46026C61.2686 9.2697 60.6753 9.14719 60.1786 9.14719C59.8522 9.14719 59.7 9.18803 59.3606 9.35137C60.1247 9.52832 60.389 9.77334 60.2718 10.2361C60.1787 10.6037 59.8004 11.257 59.396 11.7335C58.8116 11.856 58.4039 11.8968 57.9498 11.8968C57.07 11.8968 56.6822 11.7471 56.1746 11.2298L56.037 11.3251Z" fill="#384459"/>
<path d="M73.4384 20.1762H83.9923L83.6545 21.5102C83.5707 21.939 83.7016 22.0104 84.695 22.0104C85.5144 22.0104 86.209 21.9151 86.4687 21.7722C86.617 21.6769 86.7277 21.534 86.776 21.3434C86.782 21.3196 86.7941 21.272 86.8001 21.2482C87.6396 17.2463 87.6396 17.2463 91.1744 3.28727C91.985 2.92996 92.2508 2.76321 92.3111 2.52501C92.3412 2.4059 92.2969 2.2868 92.1405 2.12005C91.3717 1.42925 91.128 1.21486 90.2976 0.571699C89.4642 1.21486 89.1865 1.42925 88.3162 2.12005H78.3583C77.0983 1.31014 76.7116 1.07194 75.3905 0.404954C74.7546 3.40638 74.3338 5.2644 73.5135 8.50403C72.3191 13.2205 70.8633 18.6755 70.0575 21.3673C69.9248 21.8913 70.0805 21.9628 71.0738 21.9628C71.9182 21.9628 72.6376 21.8675 72.8416 21.7484C73.0147 21.6531 73.0945 21.534 73.1609 21.272L73.4384 20.1762ZM87.1591 7.6703H76.6052L77.884 2.62029H88.4379L87.1591 7.6703ZM87.0324 8.17054L85.7235 13.3397H75.1696L76.4785 8.17054H87.0324ZM85.5968 13.8399L84.1189 19.676H73.565L75.0429 13.8399H85.5968Z" fill="#384459"/>
<path d="M101.9 5.55025L102.883 1.66746C103.708 1.45307 104.073 1.28632 104.127 1.07194C104.211 0.738446 103.789 0.643162 100.496 0.309671C100.354 1.2625 100.18 2.14387 99.8666 3.38256L99.3177 5.55025H97.778C97.1324 5.55025 96.7223 5.50261 96.0692 5.33586L96.0319 6.16959C96.6272 6.07431 96.9809 6.05049 97.6514 6.05049H99.191L97.8941 11.172C96.3137 11.5293 95.2533 11.696 94.3284 11.7198C94.3851 14.3401 94.4705 14.9833 94.7685 14.9833C94.992 14.9833 95.1886 14.6974 95.444 13.9828C96.7318 13.5064 96.7318 13.5064 97.3693 13.2444L95.9397 18.8899C95.8673 19.1758 95.7747 19.2472 95.4768 19.2472C94.3653 19.2234 93.974 19.1996 92.3404 19.0805L92.2432 19.3663C93.4816 19.7713 93.8555 19.9618 94.1127 20.3191C94.3571 20.6288 94.4103 21.1052 94.3219 21.7484C94.2563 22.1057 94.269 22.1534 94.5422 22.1534C94.6912 22.1534 94.9207 22.1295 95.1502 22.1057C96.316 21.9151 97.1514 21.5578 97.6506 21.0576C98.0082 20.7241 98.1611 20.4144 98.4031 19.5569C98.8903 17.4368 98.8903 17.4368 99.0411 16.8413L99.6986 14.2448L100.309 11.9342C102.177 11.029 102.727 10.7194 104.161 9.86182L104.128 9.59979C101.625 10.3621 101.625 10.3621 100.652 10.5764L101.798 6.05049H104.952C105.151 6.05049 105.262 6.00284 105.286 5.90756C105.298 5.85992 105.286 5.81228 105.235 5.71699C104.702 4.97855 104.533 4.76416 103.919 4.04954C103.111 4.78798 103.111 4.78798 102.273 5.55025H101.9ZM109.023 1.64364C109.828 1.40543 110.057 1.28632 110.112 1.07194C110.178 0.809909 109.836 0.690804 108.382 0.547879C108.021 0.500238 107.419 0.428774 106.642 0.357313C106.494 1.33396 106.41 1.76274 106.169 2.71557L104.854 7.90851C104.655 8.6946 104.763 9.05191 105.299 9.29012C105.741 9.5045 106.381 9.52832 110.379 9.52832C114.551 9.52832 115.96 9.45686 116.802 9.17101C117.372 8.98044 117.735 8.62313 117.874 8.07525C117.983 7.64648 117.869 7.40827 117.383 7.17006C117.121 7.02714 117.052 6.90803 117.118 6.64601C117.13 6.59836 117.155 6.50308 117.185 6.38398L117.974 3.95425L117.762 3.90661C116.601 5.55025 116.238 6.00284 115.752 6.55072C115.161 7.21771 115.013 7.31299 114.249 7.38445C113.896 7.40827 111.624 7.45591 110.109 7.45591C108.47 7.45591 107.905 7.43209 107.755 7.33681C107.618 7.28917 107.624 7.17006 107.714 6.81275L108.136 5.1453C111.051 4.71652 113.952 4.04954 117.229 3.07288C117.558 3.14435 117.85 3.16817 118.123 3.16817C118.372 3.16817 118.6 3.04906 118.637 2.90614C118.703 2.64411 118.241 2.31062 116.008 0.833729C115.014 1.61982 113.777 2.2868 111.488 3.28727C110.318 3.78751 109.686 4.02572 108.305 4.47831L109.023 1.64364ZM101.405 21.6293C101.29 22.0819 101.421 22.1534 102.191 22.1534C103.904 22.1534 104.121 22.0819 104.284 21.4387L104.495 20.605H110.256L110.015 21.5578C109.925 22.0104 110.006 22.0819 110.826 22.0819C112.316 22.0819 112.724 21.939 112.869 21.3673C113.452 18.7708 113.633 18.0562 114.912 13.0062C115.784 12.6012 115.933 12.5059 115.975 12.3392C116.005 12.2201 115.961 12.101 115.804 11.9342C115.123 11.2911 114.904 11.0767 114.098 10.4335C113.357 11.0052 113.135 11.1958 112.413 11.7913H107C105.914 11.0767 105.546 10.8623 104.331 10.2668C104.049 11.5769 103.797 12.6727 103.194 15.0548C102.488 17.8418 102.204 18.8661 101.417 21.5817L101.405 21.6293ZM111.487 15.7456H105.725L106.6 12.2915H112.361L111.487 15.7456ZM111.36 16.2458L110.383 20.1048H104.622L105.599 16.2458H111.36Z" fill="#384459"/>
<path d="M123.125 22.2486C125.623 21.6055 126.83 21.1529 128.196 20.3668C130.842 18.8423 132.607 16.5793 133.294 13.8637C133.626 12.5536 133.614 11.7198 133.264 10.5526C133.318 10.3382 133.366 10.1477 133.39 10.0524C133.614 9.17101 134.08 7.62266 134.499 6.36016C135.362 6.28869 135.79 6.26487 136.634 6.26487C138.223 6.26487 139.273 6.33634 140.646 6.50308C141.485 6.62219 141.846 6.66983 142.069 6.66983C142.591 6.66983 143.036 6.38398 143.144 5.9552C143.241 5.57407 143.177 5.33586 142.92 5.07383C142.413 4.52595 141.435 4.07336 140.765 4.07336C140.392 4.07336 140.132 4.121 139.637 4.31157C138.702 4.66888 138.497 4.6927 134.973 4.97855C135.345 4.0019 135.449 3.78751 135.984 3.14435C136.267 2.81086 136.359 2.64411 136.419 2.4059C136.558 1.85802 136.208 1.47689 135.318 1.16722C134.49 0.905192 133.558 0.762267 132.614 0.762267C131.819 0.762267 131.472 0.857549 130.929 1.23868C132.029 1.40543 132.571 1.7151 132.836 2.23916C133.069 2.69175 133 3.45402 132.591 5.2644C130.855 5.45497 130.091 5.52643 129.062 5.66935C124.485 6.28869 124.485 6.28869 123.74 6.28869C122.622 6.28869 121.912 5.85992 121.439 4.88327C121.316 5.07383 121.261 5.19294 121.237 5.28822C121.11 5.78846 121.233 6.47926 121.53 7.17006C121.984 8.1229 122.596 8.64695 123.317 8.64695C123.54 8.64695 123.881 8.57549 124.073 8.50403C126.171 7.57502 128.891 6.93186 132.315 6.55072C132.129 7.38445 132.081 7.57502 131.936 8.14672C131.864 8.43257 131.815 8.62313 131.646 9.29012C131.036 8.95662 130.756 8.88516 130.234 8.88516C128.173 8.88516 126.304 10.4812 125.737 12.7203C125.176 14.9356 126.194 16.6031 128.081 16.6031C128.677 16.6031 129.185 16.4602 129.729 16.1743C128.922 17.7941 128.097 18.7946 126.647 19.9142C125.566 20.7479 124.583 21.2958 123.074 21.9628L123.125 22.2486ZM130.85 12.3392C130.518 13.6493 129.754 14.4116 128.785 14.4116C127.693 14.4116 127.213 13.3635 127.593 11.8628C127.919 10.5764 128.942 9.57597 129.935 9.57597C130.953 9.57597 131.296 10.5764 130.85 12.3392Z" fill="#384459"/>
<path d="M141.315 22.201C143.135 21.4864 143.939 21.1529 144.886 20.6526C148.219 18.9614 151.125 16.5078 153.375 13.5064C155.287 10.9576 156.376 8.71842 157.65 4.76416C157.137 7.57502 156.999 9.00427 157.026 11.0529C157.08 14.1734 157.683 16.6984 158.87 18.6755C159.681 19.9857 161.364 21.7722 161.836 21.7722C161.96 21.7722 162.078 21.7008 162.237 21.4625C163.35 19.9142 164.041 19.3425 165.41 18.9375L165.495 18.6993C163.603 18.0324 162.574 17.4845 161.356 16.4125C159.244 14.5545 158.145 12.1248 157.904 8.86134C157.759 6.88421 157.918 4.88327 158.322 3.28727C158.37 3.0967 158.443 2.81086 158.558 2.45354C159.45 2.16769 159.71 2.02477 159.758 1.8342C159.83 1.54835 159.364 1.42925 157.649 1.23868C157.233 1.21486 156.556 1.1434 155.711 1.04812C155.603 1.66746 155.562 1.92949 155.441 2.4059C155.17 3.47784 154.605 5.21676 154.137 6.47926C152.932 9.76653 151.412 12.4345 149.339 15.0309C147.008 17.9609 144.916 19.7474 141.251 21.9628L141.315 22.201Z" fill="#384459"/>
<path d="M172.148 20.4314C173.686 20.2409 174.653 20.0095 175.632 19.6147C177.921 18.7027 179.456 17.1238 179.956 15.15C180.638 12.4549 178.868 10.5356 175.704 10.5356C173.589 10.5356 171.361 11.3795 169.789 12.768C168.841 13.5983 168.124 14.6328 167.907 15.4903C167.766 16.0484 167.827 16.6473 168.064 17.0557C168.352 17.5457 168.417 17.7363 168.419 18.063C168.42 18.5666 168.457 18.7572 168.518 18.9614C168.616 19.1928 168.872 19.3561 169.185 19.3561C169.894 19.3561 170.907 18.6075 172.201 17.1374C173.64 15.4903 174.846 13.5847 175.122 12.4957C175.257 11.9649 175.194 11.5973 174.838 11.0392C175.115 11.012 175.228 11.012 175.413 11.012C177.853 11.012 178.978 12.4004 178.388 14.7281C178.033 16.1301 177.262 17.3279 176.063 18.308C174.987 19.1928 173.771 19.7917 172.139 20.2409L172.148 20.4314ZM174.544 11.0801C174.558 11.0801 174.581 11.2706 174.582 11.3795C174.593 11.502 174.563 11.679 174.525 11.8287C174.373 12.4277 173.661 13.5574 172.628 14.837C171.281 16.5112 170.059 17.641 169.591 17.641C169.108 17.641 168.87 16.6746 169.108 15.7353C169.398 14.5919 170.23 13.4349 171.447 12.4957C172.466 11.7198 173.333 11.3251 174.544 11.0801Z" fill="#384459"/>
<path d="M182.92 12.1282C183.149 13.2444 183.673 13.6936 184.794 13.6936C185.149 13.6936 185.394 13.68 185.734 13.6255C184.402 15.8034 183.197 17.4232 182.295 18.2399C181.893 18.5938 181.827 18.6891 181.734 19.0566C181.627 19.4786 181.634 20.0095 181.775 20.2953C181.84 20.4314 182 20.5267 182.17 20.5267C182.397 20.5267 182.627 20.4042 182.827 20.1728C183.052 19.9006 183.403 19.3561 184.115 18.1719C185.425 16.0212 185.425 16.0212 185.895 15.2317C186.655 13.9658 186.655 13.9658 186.964 13.4758C189.751 12.7816 190.904 12.3188 191.021 11.856C191.066 11.679 191.029 11.5429 190.894 11.4612C190.716 11.3251 190.332 11.2162 190.076 11.2162C189.92 11.2162 189.733 11.2843 189.542 11.4204C188.928 11.8287 188.62 11.9785 187.707 12.2779C188.328 11.3387 188.564 11.0256 188.828 10.767C189.124 10.4948 189.148 10.4539 189.19 10.2906C189.252 10.0456 189.076 9.78695 188.734 9.62361C188.282 9.3922 187.706 9.25608 187.195 9.25608C186.812 9.25608 186.706 9.28331 186.413 9.43304C186.85 9.55555 187.014 9.63722 187.146 9.78695C187.303 9.95029 187.344 10.1817 187.279 10.4403C187.158 10.9167 186.798 11.7198 186.312 12.6318C185.682 12.768 185.083 12.836 184.558 12.836C183.848 12.836 183.485 12.6454 183.083 12.0465L182.92 12.1282ZM188.599 14.8097C189.508 14.5239 190.401 14.3605 191.096 14.3605C191.181 14.3605 191.295 14.3605 191.451 14.3605L189.69 15.6537L189.744 15.7762C189.939 15.6809 189.988 15.6537 190.183 15.5584C190.748 15.2862 190.748 15.2862 190.858 15.2453C191.35 15.0411 191.785 14.9459 192.183 14.9459L192.733 14.9595C193.201 14.9595 193.476 14.7689 193.573 14.3878C193.711 13.8433 193.193 13.4758 192.257 13.4758C191.136 13.4758 189.759 13.925 188.576 14.6736L188.599 14.8097ZM187.617 16.8924C187.337 17.3279 187.183 17.6546 187.079 18.063C186.89 18.8116 187.026 19.4514 187.455 19.887C187.93 20.3634 188.915 20.622 190.277 20.622C191.739 20.622 192.446 20.4042 192.567 19.9278C192.619 19.7236 192.586 19.5739 192.482 19.4242C192.274 19.1247 191.839 18.8797 191.555 18.8797C191.47 18.8797 191.367 18.8933 191.258 18.9341C190.642 19.1247 190.273 19.1792 189.649 19.1792C187.975 19.1792 187.307 18.6211 187.604 17.4504C187.635 17.3279 187.683 17.1918 187.777 16.9332L187.617 16.8924Z" fill="#384459"/>
<path d="M198.828 10.7806C199.337 11.4612 199.411 11.8968 199.307 13.5983C198.388 14.1428 197.806 14.5919 197.247 15.1773C196.701 15.7626 196.27 16.4568 196.129 17.0149C196.039 17.3688 196.109 17.7091 196.32 17.9949C196.578 18.3216 196.597 18.4169 196.554 18.8661C196.504 19.3969 196.669 19.642 197.095 19.642C197.45 19.642 197.839 19.5058 198.422 19.1655C198.97 18.8525 199.435 18.5258 199.802 18.1991C200.154 18.7708 200.536 19.0566 200.919 19.0566C201.217 19.0566 201.474 18.8797 201.54 18.6211C201.598 18.3897 201.551 18.2399 201.261 17.818C201.085 17.5593 201.035 17.4777 200.941 17.2327C202.261 15.9395 203.365 14.5511 204.501 12.7543C205.176 12.836 205.571 13.013 205.918 13.3805C206.433 13.925 206.563 14.7553 206.311 15.749C206.042 16.8107 205.432 17.7635 204.53 18.5802C203.469 19.5194 202.433 20.0231 200.398 20.6084L200.392 20.7445C201.941 20.622 202.958 20.4178 203.963 20.0367C206.078 19.2472 207.462 17.8724 207.896 16.1573C208.427 14.0611 207.156 12.4685 204.781 12.2643C205.156 11.6246 205.439 11.012 205.508 10.7398C205.573 10.4812 205.529 10.2634 205.336 10.0728C205.111 9.8414 204.67 9.67806 204.287 9.67806C203.932 9.67806 203.638 9.77334 203.027 10.0592L203.024 10.1817C203.23 10.1545 203.315 10.1545 203.443 10.1545C203.939 10.1545 204.086 10.3042 203.986 10.6989C203.886 11.0937 203.719 11.5293 203.373 12.2779C202.129 12.4277 201.41 12.6318 200.307 13.1219C200.326 11.8151 200.002 11.2434 198.98 10.6853L198.828 10.7806ZM199.302 14.4014C199.211 15.5448 199.246 16.4159 199.42 17.3552C198.704 17.9405 198.026 18.3216 197.671 18.3216C197.33 18.3216 197.138 17.7363 197.279 17.1782C197.538 16.1573 198.166 15.2998 199.302 14.4014ZM200.312 13.7208C201.276 13.1627 201.959 12.9313 203.135 12.768C202.418 14.0883 201.554 15.3134 200.594 16.3615C200.458 15.8306 200.41 15.4631 200.381 15.0139C200.335 13.9658 200.335 13.9658 200.312 13.7208Z" fill="#384459"/>
<path d="M214.718 20.4314C216.256 20.2409 217.223 20.0095 218.203 19.6147C220.491 18.7027 222.026 17.1238 222.526 15.15C223.209 12.4549 221.438 10.5356 218.274 10.5356C216.16 10.5356 213.931 11.3795 212.359 12.768C211.411 13.5983 210.695 14.6328 210.478 15.4903C210.336 16.0484 210.398 16.6473 210.635 17.0557C210.922 17.5457 210.987 17.7363 210.99 18.063C210.99 18.5666 211.027 18.7572 211.089 18.9614C211.186 19.1928 211.443 19.3561 211.755 19.3561C212.465 19.3561 213.477 18.6075 214.772 17.1374C216.211 15.4903 217.417 13.5847 217.693 12.4957C217.827 11.9649 217.764 11.5973 217.409 11.0392C217.685 11.012 217.799 11.012 217.983 11.012C220.424 11.012 221.548 12.4004 220.959 14.7281C220.604 16.1301 219.832 17.3279 218.633 18.308C217.558 19.1928 216.342 19.7917 214.71 20.2409L214.718 20.4314ZM217.114 11.0801C217.129 11.0801 217.151 11.2706 217.152 11.3795C217.164 11.502 217.133 11.679 217.095 11.8287C216.944 12.4277 216.232 13.5574 215.198 14.837C213.852 16.5112 212.629 17.641 212.161 17.641C211.678 17.641 211.441 16.6746 211.679 15.7353C211.968 14.5919 212.8 13.4349 214.017 12.4957C215.037 11.7198 215.903 11.3251 217.114 11.0801Z" fill="#384459"/>
<path d="M238.04 11.6722C237.668 11.6722 237.239 11.6007 236.828 11.4578L236.729 12.3392C237.188 12.1963 237.417 12.1724 237.914 12.1724H238.013C238.101 14.7689 238.39 16.079 239.202 17.5798C237.513 19.2472 236.315 20.1524 234.269 21.3673C234.785 18.9375 235.068 17.7227 235.514 15.9599L237.137 9.55214H248.808C248.932 9.55214 249.019 9.5045 249.037 9.43304C249.049 9.3854 249.018 9.31394 248.961 9.24247C248.129 8.31346 247.847 8.05143 246.885 7.14624C245.904 7.97997 245.595 8.21818 244.564 9.05191H227.877C227.38 9.05191 226.852 8.98045 226.317 8.83752L226.268 9.71889C226.819 9.59979 227.179 9.55214 227.75 9.55214H228.57L226.398 18.1276C225.585 18.1991 225.257 18.2229 224.81 18.2229C224.636 18.2229 224.363 18.2229 224.021 18.1991C224.111 21.1767 224.145 21.534 224.443 21.534C224.691 21.534 224.913 21.2482 225.168 20.5335C228.209 19.5092 230.747 18.604 232.499 17.8656C232.269 18.6755 232.269 18.6755 231.422 21.7246C231.308 22.1772 231.414 22.2486 232.184 22.2486C233.674 22.2486 234.051 22.1295 234.203 21.6293C236.65 20.8908 238.06 20.2239 240.049 18.8423C240.732 19.676 241.463 20.3191 242.548 21.0338C243.06 21.3673 243.721 21.7008 243.845 21.7008C243.969 21.7008 244.068 21.6055 244.239 21.3196C244.435 20.9385 244.798 20.4859 245.186 20.1286C245.71 19.6283 246.044 19.3901 246.762 19.1043L246.853 18.8423C244.411 18.4849 243.421 18.1753 241.95 17.3177C243.368 16.0314 244.187 15.0548 245.642 12.9347C246.559 12.6488 246.844 12.5059 246.898 12.2915C246.922 12.1963 246.896 12.101 246.734 11.958C245.996 11.2434 245.777 11.029 245.021 10.3859C244.268 10.9099 244.046 11.1005 243.28 11.6722H238.04ZM231.078 9.55214H234.604L234.013 11.8866H230.487L231.078 9.55214ZM230.36 12.3868H233.886L233.301 14.6974H229.775L230.36 12.3868ZM229.648 15.1977H233.174L232.626 17.3654C230.995 17.6274 229.94 17.7703 228.979 17.8418L229.648 15.1977ZM243.178 12.1724C242.112 14.1257 241.628 14.8642 240.489 16.222C239.283 15.1024 238.829 14.1496 238.485 12.1724H243.178ZM232.792 7.0986H243.246L243.114 7.62266C243.035 7.93233 243.166 8.00379 243.861 8.00379C245.327 8.00379 245.704 7.88469 245.85 7.40827C246.277 5.52643 246.578 4.2401 246.746 3.57312L247.012 2.52501C247.767 2.19151 248.002 2.04859 248.056 1.8342C248.08 1.73892 248.005 1.64364 247.848 1.47689C246.923 0.619341 246.923 0.619341 246.211 0C245.476 0.547879 245.26 0.714625 244.55 1.2625H234.493C233.353 0.666983 232.997 0.500238 231.833 0C231.618 1.1434 231.534 1.57217 231.154 3.07288C230.714 4.8118 230.442 5.78846 229.927 7.52738C229.824 7.93233 229.911 7.97997 230.93 7.97997C232.32 7.97997 232.587 7.90851 232.695 7.47973L232.792 7.0986ZM244.055 3.90661H233.6L234.143 1.76274H244.597L244.055 3.90661ZM243.928 4.40685L243.373 6.59836H232.918L233.473 4.40685H243.928Z" fill="#384459"/>
<path d="M265.286 2.92996L265.666 1.42925C266.668 1.00047 266.724 0.976654 266.766 0.809909C266.844 0.500238 266.241 0.333491 264.75 0.238208C264.359 0.214387 263.775 0.166747 262.999 0.0952836C262.893 0.905192 262.827 1.2625 262.725 1.66746L262.405 2.92996H254.856C254.235 2.92996 253.726 2.88232 252.998 2.71557L252.973 3.59694C253.519 3.50166 254.232 3.4302 254.754 3.4302H275.241C275.365 3.4302 275.483 3.35873 275.501 3.28727C275.513 3.23963 275.5 3.19199 275.444 3.12053C274.43 2.12005 274.087 1.81038 273.006 0.88137L270.6 2.92996H265.286ZM259.673 5.3835C258.557 4.78798 258.202 4.62124 256.957 4.14482C256.735 5.21676 256.621 5.76464 256.344 6.86039C256.018 8.14672 255.994 8.242 255.443 10.1238C255.389 10.4335 255.545 10.505 256.166 10.505C257.83 10.505 258.04 10.4573 258.211 10.0762L258.356 9.5045H266.104L265.941 10.1477C265.912 10.4573 266.037 10.5526 266.534 10.5526C267.204 10.5526 268.147 10.4573 268.395 10.3621C268.556 10.3144 268.63 10.2191 268.715 9.98092C268.799 9.64743 268.86 9.40922 268.902 9.24247C269.088 8.40875 269.245 7.7894 269.257 7.74176C269.414 7.12242 269.438 7.02714 269.577 6.47926C270.251 6.16959 270.523 5.97902 270.571 5.78846C270.595 5.69317 270.545 5.59789 270.426 5.47879C269.664 4.85945 269.408 4.6927 268.603 4.14482C267.906 4.64506 267.69 4.8118 267.023 5.3835H259.673ZM259.273 5.88374H267.021L266.231 9.00427H258.483L259.273 5.88374ZM258.806 14.1019C257.759 13.5302 257.429 13.3635 256.283 12.8871C256.02 14.221 255.863 14.8404 255.41 16.6269C255.054 18.0324 254.934 18.5088 254.564 19.676C254.51 19.9857 254.641 20.0571 255.113 20.0571C255.709 20.0571 256.416 20.0095 256.677 19.9618C256.962 19.9142 257.054 19.8427 257.158 19.6283L257.466 18.4135H262.457L262.337 18.8899C262.289 19.1758 262.42 19.2472 262.966 19.2472C263.662 19.2472 264.325 19.1757 264.592 19.1043C264.759 19.0328 264.858 18.9375 264.943 18.6993C264.973 18.5802 264.997 18.4849 265.009 18.4373L265.551 16.1981C265.63 15.8885 265.69 15.6503 265.793 15.2453C266.664 14.7451 266.664 14.7451 266.712 14.5545C266.731 14.4831 266.718 14.4354 266.618 14.3401C265.936 13.697 265.711 13.5064 264.949 12.8871L263.326 14.1019H258.806ZM258.431 14.6022H263.422L262.584 17.9132H257.593L258.431 14.6022ZM254.733 11.5531C253.592 10.8623 253.224 10.6479 251.966 10.0286C251.72 11.2911 251.305 13.03 250.653 15.6026C250.038 18.0324 249.591 19.6998 248.998 21.7484C248.932 22.1057 249.057 22.201 249.554 22.201C251.441 22.201 251.732 22.1295 251.877 21.5578L253.028 16.9128L254.259 12.0533H268.935L267.083 19.3663C267.017 19.6283 266.918 19.7236 266.708 19.7713C264.689 19.6998 264.565 19.6998 263.665 19.6283L263.567 19.9142C264.792 20.1762 265.147 20.343 265.356 20.7956C265.457 21.0814 265.479 21.4864 265.408 21.9628C265.353 22.1772 265.416 22.2248 265.614 22.2248C266.508 22.2248 267.575 22.0342 268.212 21.7722C269.042 21.4387 269.356 21.0814 269.61 20.1762C269.863 19.1758 269.863 19.1757 269.989 18.5802C270.387 16.9128 270.441 16.6984 270.567 16.1981L271.43 12.7918C272.321 12.4106 272.556 12.2677 272.616 12.0295C272.634 11.958 272.609 11.8628 272.484 11.7675C271.697 11.0529 271.428 10.8385 270.56 10.1477C269.782 10.767 269.535 10.9576 268.813 11.5531H254.733Z" fill="#384459"/>
<path d="M278.574 20.4314C280.112 20.2409 281.079 20.0095 282.058 19.6147C284.347 18.7027 285.882 17.1238 286.382 15.15C287.064 12.4549 285.294 10.5356 282.13 10.5356C280.015 10.5356 277.787 11.3795 276.215 12.768C275.266 13.5983 274.55 14.6328 274.333 15.4903C274.192 16.0484 274.253 16.6473 274.49 17.0557C274.778 17.5457 274.843 17.7363 274.845 18.063C274.846 18.5666 274.882 18.7572 274.944 18.9614C275.042 19.1928 275.298 19.3561 275.611 19.3561C276.32 19.3561 277.333 18.6075 278.627 17.1374C280.066 15.4903 281.272 13.5847 281.548 12.4957C281.683 11.9649 281.62 11.5973 281.264 11.0392C281.541 11.012 281.654 11.012 281.839 11.012C284.279 11.012 285.404 12.4004 284.814 14.7281C284.459 16.1301 283.688 17.3279 282.489 18.308C281.413 19.1928 280.197 19.7917 278.565 20.2409L278.574 20.4314ZM280.97 11.0801C280.984 11.0801 281.007 11.2706 281.008 11.3795C281.019 11.502 280.989 11.679 280.951 11.8287C280.799 12.4277 280.087 13.5574 279.054 14.837C277.707 16.5112 276.485 17.641 276.017 17.641C275.534 17.641 275.296 16.6746 275.534 15.7353C275.824 14.5919 276.656 13.4349 277.873 12.4957C278.892 11.7198 279.759 11.3251 280.97 11.0801Z" fill="#384459"/>
<path d="M302.43 1.61982C301.445 1.00047 301.114 0.833729 300.036 0.28585C299.814 1.2625 299.729 1.59599 299.524 2.4059L299.474 2.31062C298.766 1.47689 298.553 1.23868 297.803 0.476417C297.001 1.19104 296.767 1.42925 296.015 2.14387H293.134C292.613 2.14387 292.227 2.09623 291.643 1.95331L291.593 2.73939C292.157 2.66793 292.411 2.64411 293.007 2.64411H294.001L292.469 8.6946H291.674C291.128 8.6946 290.817 8.64695 290.207 8.50403L290.157 9.29012C290.771 9.21865 291.075 9.19483 291.572 9.19483H292.342L290.707 15.6503C289.158 15.9838 288.848 16.0314 287.905 16.1267C288.037 18.9375 288.135 19.5331 288.408 19.5331C288.631 19.5331 288.803 19.2472 289.077 18.4611C293.338 16.3411 294.581 15.6503 296.558 14.3163L296.475 14.0543C295.274 14.4831 294.816 14.626 293.459 14.9833L294.924 9.19483H297.557C297.706 9.19483 297.792 9.14719 297.81 9.07573C297.822 9.02809 297.816 8.95662 297.778 8.90898C297.332 8.21818 297.188 8.00379 296.655 7.36063C296.033 7.95615 295.866 8.1229 295.25 8.6946H295.051L296.583 2.64411H299.191L299.482 2.57265C299.048 4.28775 299.048 4.28775 298.365 6.78893L298.353 6.83657C298.25 7.24153 298.413 7.38445 298.984 7.38445C299.605 7.38445 300.343 7.31299 300.615 7.2177C300.782 7.14624 300.856 7.05096 300.941 6.81275L301.014 6.5269H309.631L309.57 6.76511C309.517 7.07478 309.666 7.17006 310.238 7.17006C310.362 7.17006 310.56 7.17006 310.79 7.14624C310.364 7.45591 310.086 7.6703 309.413 8.17054H299.604C298.983 8.17054 298.524 8.1229 297.989 7.97997L297.963 8.76606C298.553 8.6946 298.857 8.67077 299.477 8.67077H312.912C313.061 8.67077 313.147 8.62313 313.166 8.55167C313.178 8.50403 313.165 8.45639 313.115 8.3611C312.465 7.7894 312.465 7.7894 311.658 7.05096C312.08 6.95568 312.203 6.86039 312.294 6.50308C312.672 4.8118 312.798 4.21628 313.178 2.71557C313.878 2.4059 314.088 2.26298 314.136 2.07241C314.172 1.92949 314.103 1.81038 313.903 1.61982C313.234 1.0243 313.003 0.85755 312.279 0.28585C311.563 0.85755 311.347 1.0243 310.625 1.61982H302.43ZM309.757 6.02666H308.292L309.281 2.12005H310.746L309.757 6.02666ZM306.156 6.02666H304.691L305.681 2.12005H307.146L306.156 6.02666ZM302.556 6.02666H301.14L302.13 2.12005H303.545L302.556 6.02666ZM307.939 10.2668H300.911C299.876 9.74271 299.54 9.59979 298.407 9.17101C298.203 10.0762 298.119 10.505 297.926 11.2672C297.733 12.0295 297.521 12.768 297.019 14.5545L297.013 14.5783C296.923 14.9356 297.041 15.0548 297.563 15.0548C298.407 15.0548 299.046 14.9833 299.294 14.888C299.43 14.8404 299.535 14.7213 299.614 14.5069L299.704 14.1496H301.293C299.844 15.4597 298.887 16.1982 297.176 17.3654C294.903 18.8899 293.197 19.8427 290.586 21.0338L290.649 21.272C292.651 20.7241 293.902 20.2953 295.542 19.6045C297.881 18.6041 299.322 17.818 301.063 16.5316L300.555 18.4373C300.235 19.6045 300.047 20.2477 299.606 21.796C299.593 21.8437 299.581 21.8913 299.575 21.9151C299.497 22.2248 299.659 22.3677 300.131 22.3677C300.131 22.3677 300.181 22.3677 300.231 22.3677C300.28 22.3677 300.38 22.3677 300.479 22.3677C301.174 22.3677 301.794 22.2725 302.017 22.1772C302.135 22.1057 302.208 22.0104 302.287 21.796C302.69 20.0095 302.69 20.0095 303.19 17.9371L303.978 14.5307C304.571 17.3892 305.496 19.1281 307.177 20.6288C307.721 21.1291 308.232 21.4625 308.456 21.4625C308.555 21.4625 308.642 21.4149 308.728 21.272C309.482 20.0571 310.037 19.5331 311.095 19.0805L311.175 18.8661C309.205 18.6041 307.542 17.9132 306.349 16.9366C307.558 16.7698 308.215 16.6269 309.672 16.2696C310.076 16.3411 310.337 16.3887 310.461 16.3887C310.66 16.3887 310.833 16.2934 310.869 16.1505C310.911 15.9838 310.892 15.9599 309.07 14.626C309.491 14.5307 309.645 14.4116 309.724 14.1019C310.073 12.625 310.283 11.696 310.386 11.2911C311.067 11.0529 311.277 10.9099 311.325 10.7194C311.349 10.6241 311.305 10.505 311.118 10.3621C310.462 9.81417 310.256 9.64743 309.531 9.07573L307.939 10.2668ZM307.154 14.1496L307.142 14.1972C307.13 14.2448 307.124 14.2687 307.118 14.2925C307.039 14.6022 307.183 14.7213 307.655 14.7213L308.009 14.6974C308.083 14.6974 308.108 14.6974 308.232 14.6974C307.48 15.4121 306.955 15.817 305.862 16.5078C305.055 15.6741 304.703 15.1024 304.373 14.1496H307.154ZM307.281 13.6493H299.831L300.561 10.767H308.011L307.281 13.6493Z" fill="#384459"/>
<path d="M332.937 3.33491C332.363 4.52595 331.651 5.66935 330.679 6.95568H327.625C328.256 6.62219 328.736 6.09813 328.857 5.62171C329.062 4.8118 328.462 4.2401 326.431 3.33491L326.135 3.52548C326.357 4.21628 326.428 4.62124 326.39 5.2644C326.294 6.62219 326.294 6.62219 326.433 6.95568H323.453C322.939 6.24105 322.87 6.12195 322.312 5.47879L320.746 6.95568H320.498L321.795 1.8342C322.613 1.64364 322.953 1.47689 323.014 1.23868C323.086 0.952833 322.762 0.85755 321.129 0.738446C320.737 0.714625 320.129 0.666983 319.352 0.595522C319.096 2.00095 318.94 2.71557 318.614 4.0019L317.866 6.95568H316.401C315.954 6.95568 315.525 6.88421 315.033 6.76511L314.947 7.59884C315.442 7.50356 315.852 7.45591 316.274 7.45591H317.739L315.845 14.9356C314.593 15.1739 314.047 15.2691 312.98 15.3644C313.212 18.9614 313.212 18.9614 313.51 18.9614C313.758 18.9614 313.918 18.7232 314.196 17.818C316.875 16.5555 319.491 15.15 321.92 13.697L321.862 13.4349C320.307 13.8875 319.75 14.0305 318.64 14.2925L320.371 7.45591H338.201C338.35 7.45591 338.462 7.40827 338.48 7.33681C338.492 7.28917 338.485 7.21771 338.404 7.14624C337.634 6.26487 337.377 6.00284 336.459 5.21676C335.391 6.09813 335.391 6.09813 334.33 6.95568H331.747C332.971 6.24105 333.607 5.78846 334.855 4.88327C335.686 4.83562 335.928 4.76416 335.982 4.54978C336.048 4.28775 335.669 4.121 333.508 3.33491H338.748C338.947 3.33491 339.033 3.28727 339.051 3.21581C339.064 3.16817 339.057 3.0967 338.976 3.02524C338.156 2.14387 337.868 1.90567 336.906 1.09576C336.024 1.8342 335.746 2.04859 334.827 2.83468H332.096L332.457 1.40543C333.362 1.16722 333.671 1.0243 333.726 0.809909C333.744 0.738446 333.699 0.619342 333.637 0.571699C333.356 0.404954 333.288 0.381134 330.021 0.142926C329.871 0.929012 329.8 1.31014 329.649 1.90567L329.414 2.83468H325.49C324.969 2.83468 324.534 2.78704 323.924 2.64411L323.862 3.47784C324.358 3.38256 324.817 3.33491 325.363 3.33491H332.937ZM324.241 15.2215H328.164L327.549 17.6512C327.229 18.9137 327.229 18.9137 326.91 20.1762L326.891 20.2477C326.548 21.6055 326.946 21.796 329.976 21.796C331.863 21.796 333.328 21.7008 333.972 21.5102C334.56 21.3434 335.054 20.867 335.198 20.2953C335.319 19.8189 335.18 19.4854 334.744 19.2472C334.507 19.1043 334.45 19.0328 334.505 18.8184C334.511 18.7946 334.553 18.6279 334.638 18.3897L335.652 15.2691L335.391 15.2215C333.643 18.1038 333.243 18.6993 332.874 19.0805C332.535 19.4378 332.188 19.5331 331.244 19.5331C329.705 19.5331 329.705 19.5331 329.837 19.009L330.796 15.2215H331.293L331.191 15.6264C331.137 15.9361 331.181 15.9599 331.876 15.9599C332.993 15.9599 333.564 15.8647 333.761 15.6741C333.829 15.6026 333.878 15.5073 333.926 15.3168C334.31 13.5064 334.455 12.9347 335.185 10.0524C335.853 9.76653 336.032 9.64743 336.08 9.45686C336.117 9.31394 336.06 9.24247 335.86 9.05191C335.173 8.52785 334.967 8.3611 334.231 7.83705C333.577 8.3611 333.361 8.52785 332.645 9.09955H326.064C324.979 8.48021 324.624 8.31346 323.466 7.7894C323.256 8.8137 323.112 9.48068 322.816 10.6479C322.243 12.9109 321.971 13.8875 321.475 15.6503C321.36 16.1029 321.491 16.1743 322.336 16.1743C323.031 16.1743 323.31 16.1505 323.732 16.0552C323.17 17.3892 322.444 18.2944 321.265 19.2234C319.784 20.3668 317.99 21.1767 315.127 21.9866L315.099 22.2963C318.101 22.0104 319.546 21.7008 321.328 20.9385C323.525 20.0095 324.882 18.8661 326.226 16.7937C326.995 16.6031 327.162 16.5316 327.216 16.3173C327.289 16.0314 327.171 16.0076 324.15 15.5788L324.241 15.2215ZM332.144 11.8628H325.091L325.664 9.59979H332.717L332.144 11.8628ZM332.017 12.363L331.42 14.7213H324.367L324.964 12.363H332.017Z" fill="#384459"/>
<path d="M23.116 36.04V46.144H24.592V36.04H23.116ZM19.912 39.448V40.84H27.64V39.448H19.912ZM20.236 45.232V46.624H27.436V45.232H20.236ZM17.992 39.34V47.056H19.42V37.948L19.396 37.924L17.992 39.34ZM19.264 35.824C18.58 37.6 17.416 39.364 16.204 40.48C16.468 40.828 16.888 41.608 17.032 41.944C18.436 40.576 19.804 38.38 20.656 36.268L19.264 35.824ZM33.22 35.812V45.712C33.22 45.916 33.148 45.988 32.92 46C32.716 46 32.008 46.012 31.432 45.988C31.612 46.276 31.84 46.78 31.912 47.116C32.932 47.116 33.58 47.092 34.048 46.912C34.504 46.708 34.684 46.42 34.684 45.712V35.812H33.22ZM28.72 36.592V37.732H39.28V36.592H28.72ZM31.324 39.124H36.628V39.7H31.324V39.124ZM29.956 38.212V40.612H38.104V38.212H29.956ZM29.656 41.14V42.124H36.844V45.832H38.308V41.14H29.656ZM28.444 42.628V43.72H39.556V42.628H28.444ZM29.56 44.284V45.328H37.624V44.284H29.56ZM45.832 36.376L44.248 36.244C44.212 36.856 44.056 37.588 43.816 38.236C43.312 39.556 42.388 40.852 40.852 42.268L42.136 43.228C42.544 42.7 42.88 42.268 43.24 41.908C43.696 41.476 44.452 41.08 45.112 41.08C45.616 41.08 46.096 41.332 46.096 42.1C46.108 42.748 46.084 43.768 46.036 44.332H47.476C47.464 43.576 47.428 42.268 47.428 41.62C47.428 40.504 46.672 39.916 45.676 39.916C45.268 39.916 44.632 40 44.308 40.144C44.644 39.664 44.992 38.98 45.244 38.392C45.58 37.528 45.736 36.82 45.832 36.376ZM41.308 37.492V38.884C41.968 38.944 42.844 38.968 43.336 38.968C44.8 38.968 47.212 38.86 48.904 38.62L48.916 37.228C47.176 37.54 45.004 37.624 43.42 37.624C42.808 37.624 41.92 37.576 41.308 37.492ZM50.812 40.9L50.224 39.496C49.768 39.724 49.348 39.916 48.88 40.12C48.16 40.456 47.404 40.744 46.3 41.32C44.86 42.04 43.144 43.024 43.144 44.692C43.144 46.24 44.548 46.708 46.42 46.708C47.56 46.708 49.024 46.6 49.828 46.492L49.876 44.944C48.82 45.16 47.476 45.292 46.456 45.292C45.292 45.292 44.716 45.112 44.716 44.452C44.716 43.792 45.304 43.276 46.396 42.712C47.524 42.136 48.604 41.704 49.384 41.404C49.792 41.248 50.44 41.008 50.812 40.9ZM59.464 35.8V39.196H60.892V35.8H59.464ZM56.968 36.748V37.912H63.448V36.748H56.968ZM57.4 38.62V39.796H63.088V38.62H57.4ZM56.932 40.336V42.724H58.132V41.452H62.308V42.724H63.556V40.336H56.932ZM60.532 42.052V45.376C60.532 46.576 60.76 46.972 61.792 46.972C61.972 46.972 62.368 46.972 62.56 46.972C63.388 46.972 63.712 46.504 63.82 44.788C63.472 44.692 62.92 44.488 62.668 44.26C62.644 45.568 62.596 45.76 62.416 45.76C62.332 45.76 62.08 45.76 62.02 45.76C61.852 45.76 61.828 45.712 61.828 45.364V42.052H60.532ZM58.372 42.052V42.988C58.372 43.876 58.108 45.196 56.116 46.132C56.44 46.384 56.884 46.804 57.1 47.092C59.344 46 59.668 44.26 59.668 43.024V42.052H58.372ZM54.148 35.824C53.872 36.652 53.356 37.816 52.936 38.536L53.896 38.932C54.352 38.26 54.904 37.192 55.396 36.256L54.148 35.824ZM55.504 37.24C54.868 38.524 53.776 40.276 52.876 41.356L53.704 41.824C54.628 40.792 55.792 39.124 56.668 37.78L55.504 37.24ZM52.288 38.62C52.888 39.232 53.596 40.084 53.86 40.672L54.64 39.568C54.352 39.004 53.62 38.224 52.996 37.66L52.288 38.62ZM55.096 40.12C55.54 40.948 55.96 42.052 56.092 42.748L57.172 42.256C57.028 41.572 56.572 40.516 56.092 39.7L55.096 40.12ZM52.252 41.08L52.408 42.316C53.524 42.232 54.988 42.124 56.392 42.016L56.38 40.84C54.88 40.936 53.332 41.02 52.252 41.08ZM55.42 43.132C55.684 43.816 55.912 44.704 55.972 45.292L57.04 44.944C56.956 44.368 56.716 43.492 56.428 42.82L55.42 43.132ZM52.768 42.868C52.672 43.876 52.492 44.956 52.156 45.664C52.432 45.784 52.96 46.012 53.2 46.168C53.548 45.4 53.8 44.212 53.92 43.06L52.768 42.868ZM54.088 41.716V47.08H55.324V41.716H54.088ZM73.336 36.46H71.584C71.632 36.652 71.692 37 71.716 37.288C71.776 37.96 71.8 39.904 71.8 40.804C71.8 42.82 71.596 43.9 70.684 44.86C70.348 45.232 69.748 45.616 69.28 45.82L70.672 46.9C73.06 45.388 73.276 43.636 73.276 40.816C73.276 40.108 73.252 37.84 73.276 37.288C73.276 37.012 73.288 36.724 73.336 36.46ZM68.596 38.812V40.324C69.196 40.36 69.928 40.396 70.456 40.396C72.076 40.396 73.924 40.3 75.064 40.168V38.608C73.888 38.824 71.968 38.932 70.42 38.932C69.772 38.932 69.184 38.896 68.596 38.812ZM67.36 36.664L65.584 36.496C65.572 36.796 65.56 37.204 65.512 37.528C65.356 38.512 65.116 40.36 65.116 42.328C65.116 43.816 65.536 45.484 65.8 46.216L67.144 46.084C67.132 45.916 67.12 45.712 67.12 45.58C67.108 45.448 67.144 45.184 67.192 44.992C67.336 44.308 67.648 43.108 68.008 42.076L67.252 41.596C67.06 42.028 66.832 42.616 66.676 42.988C66.352 41.5 66.784 38.98 67.084 37.648C67.144 37.396 67.264 36.964 67.36 36.664ZM76.984 38.14L77.092 39.544C77.608 39.568 78.112 39.58 78.592 39.58C80.128 39.592 81.856 39.28 82.888 38.992L82.852 37.6C81.688 37.972 80.068 38.224 78.58 38.224C78.148 38.224 77.5 38.2 76.984 38.14ZM81.652 36.34L79.996 36.184C79.96 37.108 79.696 38.224 79.408 39.088C78.94 40.384 77.86 42.484 76.78 43.804L78.232 44.548C79.252 43.132 80.332 40.9 80.884 39.172C81.208 38.152 81.496 36.976 81.652 36.34ZM84.472 40.084H82.96C83.02 41.344 83.152 43.552 83.152 44.272C83.152 44.944 82.888 45.4 82.072 45.4C81.412 45.4 81.028 45.088 81.028 44.644C81.028 44.224 81.484 43.924 82.18 43.924C83.992 43.924 85.36 45.16 86.224 45.964L87.016 44.668C86.02 43.768 84.364 42.712 82.264 42.712C80.596 42.712 79.612 43.624 79.612 44.788C79.612 46.108 80.788 46.78 82.276 46.78C83.992 46.78 84.592 45.904 84.592 44.788C84.592 44.116 84.484 42.328 84.46 41.62C84.448 41.092 84.436 40.588 84.472 40.084ZM86.536 40.72L87.388 39.448C86.764 39.004 85.288 38.2 84.424 37.828L83.644 39.004C84.472 39.376 85.84 40.156 86.536 40.72ZM93.448 36.616L91.672 36.424C91.684 37.324 91.552 38.344 91.324 39.424C90.988 40.936 90.088 44.104 88.66 46.024L90.232 46.648C91.492 44.62 92.452 41.2 92.848 39.508C92.98 38.896 93.124 38.152 93.244 37.612C93.304 37.312 93.376 36.928 93.448 36.616ZM97.588 37.816L96.148 38.428C97.012 39.496 97.864 41.608 98.176 42.94L99.7 42.232C99.328 41.092 98.32 38.86 97.588 37.816ZM88.588 39.076L88.732 40.696C89.092 40.636 89.716 40.552 90.064 40.504C90.724 40.42 92.8 40.156 93.508 40.156C94.264 40.156 94.672 40.3 94.672 41.26C94.672 42.436 94.516 43.9 94.18 44.572C94 44.968 93.688 45.088 93.28 45.088C92.968 45.088 92.284 44.968 91.816 44.836L92.08 46.42C92.488 46.516 93.052 46.588 93.52 46.588C94.42 46.588 95.092 46.324 95.488 45.484C95.992 44.452 96.172 42.508 96.172 41.092C96.172 39.352 95.272 38.788 94 38.788C93.112 38.788 90.832 39.052 89.872 39.076C89.428 39.088 89.02 39.1 88.588 39.076ZM97.372 36.16L96.412 36.544C96.736 37.012 97.108 37.72 97.36 38.212L98.32 37.804C98.092 37.36 97.672 36.592 97.372 36.16ZM98.788 35.608L97.84 36.004C98.164 36.46 98.56 37.156 98.8 37.66L99.76 37.252C99.544 36.832 99.1 36.064 98.788 35.608ZM103.996 36.34L103.624 37.792C104.56 38.032 107.224 38.584 108.448 38.752L108.808 37.276C107.752 37.168 105.136 36.7 103.996 36.34ZM104.08 38.752L102.46 38.536C102.388 40.024 102.1 42.376 101.86 43.552L103.252 43.888C103.348 43.648 103.48 43.456 103.696 43.204C104.452 42.292 105.664 41.788 107.02 41.788C108.076 41.788 108.808 42.352 108.808 43.132C108.808 44.668 106.912 45.544 103.3 45.04L103.768 46.612C108.748 47.044 110.488 45.364 110.488 43.168C110.488 41.716 109.264 40.42 107.164 40.42C105.904 40.42 104.704 40.78 103.624 41.572C103.708 40.876 103.912 39.424 104.08 38.752ZM112.24 41.896L112.6 43.276C113.656 42.88 114.976 42.376 116.2 41.896L115.948 40.624C114.592 41.116 113.188 41.62 112.24 41.896ZM112.396 38.092V39.412H116.032V38.092H112.396ZM113.704 35.824V45.556C113.704 45.724 113.644 45.76 113.5 45.76C113.356 45.772 112.936 45.772 112.504 45.748C112.672 46.144 112.84 46.732 112.876 47.092C113.656 47.092 114.172 47.044 114.532 46.816C114.904 46.6 115.024 46.228 115.024 45.556V35.824H113.704ZM117.784 35.944V41.188C117.784 43.216 117.52 44.92 115.384 46.024C115.696 46.252 116.188 46.732 116.404 47.044C118.792 45.724 119.104 43.6 119.104 41.2V35.944H117.784ZM119.872 35.944V45.028C119.872 46.54 120.184 46.972 121.264 46.972C121.48 46.972 122.092 46.972 122.32 46.972C123.256 46.972 123.604 46.336 123.736 44.68C123.352 44.596 122.836 44.356 122.524 44.116C122.488 45.34 122.428 45.688 122.2 45.688C122.068 45.688 121.624 45.688 121.516 45.688C121.276 45.688 121.228 45.604 121.228 45.04V35.944H119.872ZM115.888 37.912C116.344 38.68 116.86 39.712 117.076 40.384L118.192 39.712C117.964 39.064 117.448 38.08 116.956 37.324L115.888 37.912ZM120.712 41.812C121.48 42.496 122.392 43.492 122.824 44.092L123.736 43.096C123.28 42.496 122.368 41.608 121.576 40.96L120.712 41.812ZM115.504 42.964L116.236 44.164C116.86 43.696 117.58 43.132 118.228 42.592L117.76 41.5C116.92 42.064 116.068 42.628 115.504 42.964ZM122.212 37.18C121.948 38.008 121.432 39.124 121.024 39.832L122.008 40.384C122.452 39.736 122.98 38.716 123.496 37.828L122.212 37.18ZM130.564 39.316L130.72 40.66L135.688 40.036L135.532 38.716L130.564 39.316ZM133.24 36.532C133.708 37.168 134.188 38.068 134.38 38.632L135.532 37.984C135.34 37.42 134.812 36.592 134.332 35.968L133.24 36.532ZM124.36 36.448C124.696 37.096 125.02 37.948 125.092 38.488L126.34 38.056C126.232 37.504 125.884 36.688 125.524 36.076L124.36 36.448ZM126.508 36.088C126.748 36.748 126.976 37.624 127.036 38.152L128.296 37.828C128.224 37.3 127.972 36.448 127.708 35.812L126.508 36.088ZM125.956 41.368H129.232V42.052H125.956V41.368ZM125.956 39.688H129.232V40.372H125.956V39.688ZM124.78 38.62V43.108H130.456V38.62H124.78ZM124.348 43.828V45.088H130.792V43.828H124.348ZM129.544 35.86C129.328 36.604 128.908 37.6 128.536 38.26L129.676 38.632C130.072 38.044 130.588 37.12 131.032 36.256L129.544 35.86ZM127 38.968V42.58H126.916V47.068H128.296V42.58H128.212V38.968H127ZM134.296 40.396C133.516 42.808 131.812 45.076 129.592 46.084C129.964 46.336 130.384 46.756 130.636 47.092C132.784 45.916 134.548 43.528 135.388 41.02L134.296 40.396ZM131.512 35.86C131.68 42.472 132.28 46.948 134.404 47.032C134.908 47.056 135.508 46.588 135.82 44.56C135.604 44.428 135.028 44.032 134.788 43.732C134.728 44.776 134.608 45.328 134.404 45.328C133.552 45.244 132.928 40.96 132.868 35.86H131.512ZM144.544 37.012V45.232C144.544 45.484 144.448 45.568 144.16 45.58C143.872 45.58 142.828 45.592 141.964 45.532C142.192 45.928 142.48 46.636 142.564 47.068C143.8 47.068 144.676 47.044 145.276 46.792C145.852 46.564 146.056 46.132 146.056 45.268V37.012H144.544ZM137.68 39.412V45.004H139.084V39.412H137.68ZM138.28 39.412V40.78H141.376V42.712H138.28V44.08H142.804V39.412H138.28ZM136.576 36.616V38.068H147.448V36.616H136.576ZM150.172 35.752C149.92 36.712 149.428 37.984 148.996 38.8L150.244 39.124C150.7 38.356 151.24 37.18 151.672 36.076L150.172 35.752ZM148.36 38.212L148.468 39.58C149.836 39.496 151.684 39.388 153.448 39.256L153.46 38.008C151.6 38.092 149.656 38.176 148.36 38.212ZM149.068 40.144V47.068H150.4V41.332H152.884V40.144H149.068ZM152.2 40.144V45.592C152.2 45.748 152.152 45.784 152.008 45.784C151.852 45.796 151.372 45.796 150.952 45.772C151.132 46.12 151.336 46.672 151.408 47.056C152.14 47.056 152.68 47.032 153.1 46.816C153.508 46.6 153.628 46.24 153.628 45.628V40.144H152.2ZM149.68 41.956V43.024H153.004V41.956H149.68ZM149.68 43.72V44.788H153.004V43.72H149.68ZM154.564 35.86V39.484C154.564 40.816 154.912 41.224 156.328 41.224C156.604 41.224 157.684 41.224 157.984 41.224C159.1 41.224 159.484 40.792 159.64 39.232C159.244 39.148 158.656 38.932 158.356 38.704C158.308 39.76 158.236 39.94 157.84 39.94C157.588 39.94 156.724 39.94 156.532 39.94C156.076 39.94 156.004 39.88 156.004 39.46V35.86H154.564ZM158.164 36.568C157.372 37.024 156.136 37.564 155.02 37.912C155.176 38.188 155.368 38.62 155.428 38.908C156.616 38.584 158.008 38.128 159.076 37.612L158.164 36.568ZM154.564 41.464V45.256C154.564 46.588 154.924 46.996 156.34 46.996C156.628 46.996 157.744 46.996 158.044 46.996C159.196 46.996 159.58 46.516 159.736 44.824C159.34 44.74 158.764 44.512 158.464 44.296C158.404 45.52 158.332 45.736 157.912 45.736C157.648 45.736 156.748 45.736 156.544 45.736C156.076 45.736 155.992 45.688 155.992 45.244V41.464H154.564ZM158.26 41.968C157.444 42.496 156.16 43.084 154.996 43.456C155.14 43.732 155.344 44.188 155.416 44.464C156.652 44.116 158.104 43.612 159.196 43.024L158.26 41.968ZM151.804 37.072C152.38 37.972 152.956 39.172 153.16 39.94L154.468 39.412C154.24 38.62 153.616 37.48 153.028 36.616L151.804 37.072Z" fill="#007979"/>
<path d="M167.016 44.4836L169.492 42.0082L167 39.5246L168.525 38L171.016 40.4836L173.492 38.0082L174.975 39.5L172.5 41.9754L175 44.4754L173.475 46L170.975 43.5L168.5 45.9754L167.016 44.4836Z" fill="url(#paint0_linear_11_462)"/>
<path d="M189.14 39.784V41.116H193.616V39.784H189.14ZM182.636 37V38.176H188.036V37H182.636ZM182.516 41.776V42.988H188.024V41.776H182.516ZM182.48 39.676V40.864H188.132V39.676H182.48ZM191.084 40.36V47.02H192.476V40.36H191.084ZM184.64 35.908V37.528H186.044V35.908H184.64ZM184.64 40.792V47.068H186.044V40.792H184.64ZM188.492 36.76V40.948C188.492 42.592 188.36 44.644 186.968 46.12C187.292 46.3 187.82 46.792 188 47.104C189.632 45.412 189.86 42.76 189.86 40.972V37.444C190.076 37.408 190.16 37.348 190.172 37.228L188.492 36.76ZM192.416 35.932C191.564 36.388 190.148 36.82 188.864 37.108C189.032 37.384 189.236 37.888 189.308 38.2C190.712 37.936 192.344 37.528 193.568 36.976L192.416 35.932ZM185.936 43.036L185.168 43.66C185.612 44.056 186.524 44.956 186.92 45.436L187.748 44.404C187.46 44.164 186.308 43.264 185.936 43.036ZM183.236 38.356C183.428 38.812 183.584 39.424 183.608 39.82L184.784 39.508C184.724 39.112 184.556 38.524 184.34 38.092L183.236 38.356ZM186.224 38.068C186.116 38.488 185.912 39.1 185.744 39.508L186.884 39.748C187.064 39.376 187.268 38.86 187.496 38.308L186.224 38.068ZM184.652 42.484C184.124 43.54 183.128 44.704 182.18 45.316C182.48 45.544 182.9 46.024 183.128 46.336C184.088 45.556 185.084 44.176 185.672 42.856L184.652 42.484ZM194.66 37.66V38.92H199.064V37.66H194.66ZM194.456 40.444V41.74H199.256V40.444H194.456ZM196.208 35.932V40.264C196.208 42.088 196.088 44.584 194.3 45.892C194.624 46.144 195.08 46.636 195.272 46.936C197.288 45.28 197.564 42.508 197.564 40.264V35.932H196.208ZM197.372 41.944L196.484 42.616C197 43.216 198.008 44.536 198.452 45.268L199.424 44.224C199.124 43.864 197.78 42.316 197.372 41.944ZM200.96 39.352H203.588V40.048H200.96V39.352ZM200.96 41.188H203.588V41.896H200.96V41.188ZM200.96 37.504H203.588V38.2H200.96V37.504ZM199.628 36.232V43.168H204.968V36.232H199.628ZM202.352 42.724V45.256C202.352 46.432 202.58 46.84 203.648 46.84C203.852 46.84 204.248 46.84 204.452 46.84C205.304 46.84 205.628 46.408 205.748 44.692C205.4 44.596 204.824 44.38 204.572 44.164C204.536 45.436 204.5 45.604 204.308 45.604C204.224 45.604 203.96 45.604 203.888 45.604C203.708 45.604 203.696 45.568 203.696 45.232V42.724H202.352ZM200.408 42.964C200.264 44.344 199.952 45.4 198.092 46.012C198.368 46.264 198.728 46.768 198.872 47.092C201.08 46.264 201.572 44.836 201.764 42.964H200.408ZM211.22 35.812V45.712C211.22 45.916 211.148 45.988 210.92 46C210.716 46 210.008 46.012 209.432 45.988C209.612 46.276 209.84 46.78 209.912 47.116C210.932 47.116 211.58 47.092 212.048 46.912C212.504 46.708 212.684 46.42 212.684 45.712V35.812H211.22ZM206.72 36.592V37.732H217.28V36.592H206.72ZM209.324 39.124H214.628V39.7H209.324V39.124ZM207.956 38.212V40.612H216.104V38.212H207.956ZM207.656 41.14V42.124H214.844V45.832H216.308V41.14H207.656ZM206.444 42.628V43.72H217.556V42.628H206.444ZM207.56 44.284V45.328H215.624V44.284H207.56ZM218.672 43.156V44.332H229.376V43.156H218.672ZM218.696 37.768V38.956H229.328V37.768H218.696ZM219.188 39.916V41.044H228.872V39.916H219.188ZM219.788 41.572V42.616H228.308V41.572H219.788ZM223.268 40.492V47.08H224.696V40.492H223.268ZM222.224 35.8V38.332H223.568V35.8H222.224ZM224.444 35.8V38.248H225.812V35.8H224.444ZM223.004 43.684C222.02 44.596 220.112 45.388 218.3 45.736C218.612 46.036 219.032 46.588 219.224 46.936C221.072 46.456 222.992 45.436 224.132 44.188L223.004 43.684ZM224.984 43.648L223.868 44.092C224.996 45.448 226.832 46.468 228.728 46.948C228.944 46.552 229.376 45.952 229.7 45.652C227.828 45.34 225.956 44.596 224.984 43.648ZM227.204 35.896C227.036 36.424 226.724 37.156 226.448 37.648L227.612 38.008C227.924 37.564 228.332 36.916 228.716 36.256L227.204 35.896ZM225.62 38.476C225.5 38.92 225.248 39.532 225.032 39.964L226.256 40.312C226.508 39.928 226.82 39.4 227.144 38.824L225.62 38.476ZM219.56 36.28C219.884 36.832 220.268 37.564 220.4 38.032L221.708 37.564C221.54 37.096 221.144 36.376 220.796 35.86L219.56 36.28ZM221.084 38.968C221.264 39.316 221.468 39.82 221.54 40.132L223.004 39.88C222.908 39.556 222.68 39.088 222.476 38.752L221.084 38.968ZM237.092 37.78L235.448 37.732C235.328 38.992 235.064 40.372 234.716 41.5C234.212 43.12 233.756 43.888 233.24 43.888C232.784 43.888 232.304 43.3 232.304 42.088C232.304 40.576 233.696 38.5 236.24 38.5C238.316 38.5 239.492 39.844 239.492 41.728C239.492 43.492 238.292 44.584 236.768 44.956C236.444 45.028 236.108 45.088 235.64 45.148L236.552 46.564C239.576 46.096 241.124 44.308 241.124 41.788C241.124 39.16 239.24 37.096 236.276 37.096C233.168 37.096 230.756 39.472 230.756 42.232C230.756 44.26 231.86 45.736 233.204 45.736C234.512 45.736 235.544 44.248 236.264 41.824C236.684 40.408 236.924 39.004 237.092 37.78ZM249.836 36.328H248.096C248.12 36.484 248.168 36.892 248.204 37.372C248.252 38.008 248.252 40.312 248.252 41.056L249.752 41.56C249.74 40.6 249.716 38.152 249.752 37.36C249.764 37.168 249.8 36.532 249.836 36.328ZM243.044 37.828L243.08 39.268C244.892 39.172 247.28 39.076 249.464 39.076C251.228 39.076 252.452 39.112 253.196 39.148L253.22 37.732C252.548 37.72 250.724 37.732 249.5 37.732C248 37.732 244.832 37.828 243.044 37.828ZM249.548 41.38L248.42 41.068C248.804 42.496 248.312 42.976 247.748 42.976C247.256 42.976 246.812 42.628 246.812 42.088C246.812 41.452 247.28 41.128 247.748 41.128C248.276 41.128 248.696 41.5 248.696 42.28C248.696 44.38 247.1 45.184 245.06 45.628L246.332 46.9C249.26 46.072 250.184 44.092 250.184 42.52C250.184 41.032 249.356 39.868 247.772 39.868C246.476 39.868 245.372 40.756 245.372 42.112C245.372 43.576 246.524 44.308 247.448 44.308C248.828 44.308 249.548 43.336 249.548 41.38ZM253.504 42.64L254.944 44.14C255.16 43.816 255.436 43.336 255.7 42.952C256.228 42.268 257.092 41.08 257.572 40.492C257.92 40.048 258.16 39.976 258.568 40.456C259.132 41.08 260.032 42.22 260.776 43.096C261.544 43.996 262.54 45.196 263.392 46.012L264.652 44.596C263.512 43.564 262.48 42.484 261.712 41.644C261.016 40.888 260.056 39.652 259.24 38.848C258.364 37.996 257.584 38.08 256.744 39.028C256 39.892 255.076 41.14 254.512 41.704C254.152 42.1 253.864 42.364 253.504 42.64ZM261.664 37.732L260.62 38.176C261.064 38.8 261.364 39.376 261.712 40.132L262.792 39.664C262.528 39.112 262 38.248 261.664 37.732ZM263.272 37.084L262.24 37.552C262.684 38.152 263.008 38.704 263.392 39.46L264.436 38.956C264.172 38.416 263.62 37.564 263.272 37.084ZM265.528 37.756L265.684 39.4C267.076 39.088 269.524 38.836 270.652 38.716C269.836 39.328 268.864 40.684 268.864 42.412C268.864 45.016 271.24 46.372 273.76 46.528L274.312 44.884C272.284 44.776 270.436 44.068 270.436 42.088C270.436 40.672 271.528 39.112 272.968 38.728C273.616 38.584 274.648 38.572 275.296 38.572L275.284 37.024C274.432 37.06 273.124 37.132 271.888 37.24C269.68 37.432 267.712 37.6 266.704 37.696C266.476 37.72 265.996 37.744 265.528 37.756ZM282.124 36.616L280.348 36.424C280.36 37.324 280.228 38.344 280 39.424C279.664 40.936 278.764 44.104 277.336 46.024L278.908 46.648C280.168 44.62 281.128 41.2 281.524 39.508C281.656 38.896 281.8 38.152 281.92 37.612C281.98 37.312 282.052 36.928 282.124 36.616ZM286.264 37.816L284.824 38.428C285.688 39.496 286.54 41.608 286.852 42.94L288.376 42.232C288.004 41.092 286.996 38.86 286.264 37.816ZM277.264 39.076L277.408 40.696C277.768 40.636 278.392 40.552 278.74 40.504C279.4 40.42 281.476 40.156 282.184 40.156C282.94 40.156 283.348 40.3 283.348 41.26C283.348 42.436 283.192 43.9 282.856 44.572C282.676 44.968 282.364 45.088 281.956 45.088C281.644 45.088 280.96 44.968 280.492 44.836L280.756 46.42C281.164 46.516 281.728 46.588 282.196 46.588C283.096 46.588 283.768 46.324 284.164 45.484C284.668 44.452 284.848 42.508 284.848 41.092C284.848 39.352 283.948 38.788 282.676 38.788C281.788 38.788 279.508 39.052 278.548 39.076C278.104 39.088 277.696 39.1 277.264 39.076ZM286.048 36.16L285.088 36.544C285.412 37.012 285.784 37.72 286.036 38.212L286.996 37.804C286.768 37.36 286.348 36.592 286.048 36.16ZM287.464 35.608L286.516 36.004C286.84 36.46 287.236 37.156 287.476 37.66L288.436 37.252C288.22 36.832 287.776 36.064 287.464 35.608ZM291.472 39.916V41.152H297.004V39.916H291.472ZM289.324 42.604V43.936H300.064V42.604H289.324ZM293.944 41.836V45.496C293.944 45.664 293.872 45.724 293.632 45.724C293.392 45.724 292.492 45.724 291.724 45.7C291.952 46.072 292.216 46.684 292.312 47.092C293.332 47.092 294.1 47.068 294.664 46.876C295.24 46.66 295.42 46.288 295.42 45.544V41.836H293.944ZM296.536 39.916V40.18C296.092 40.768 295.072 41.62 294.148 42.1C294.364 42.292 294.748 42.688 294.916 42.928C296.092 42.364 297.28 41.428 298.108 40.54L297.196 39.844L296.896 39.916H296.536ZM289.468 37.72V40.66H290.824V38.992H298.504V40.66H299.932V37.72H289.468ZM297.784 35.896C297.496 36.568 296.956 37.468 296.5 38.056L297.676 38.488C298.168 37.96 298.792 37.144 299.344 36.352L297.784 35.896ZM290.272 36.484C290.68 36.988 291.124 37.672 291.292 38.116L292.6 37.516C292.408 37.048 291.928 36.4 291.496 35.932L290.272 36.484ZM293.296 36.22C293.656 36.772 294.028 37.528 294.148 38.008L295.516 37.48C295.36 37 294.952 36.268 294.568 35.74L293.296 36.22ZM301.024 42.64L302.464 44.14C302.68 43.816 302.956 43.336 303.22 42.952C303.748 42.268 304.612 41.08 305.092 40.492C305.44 40.048 305.68 39.976 306.088 40.456C306.652 41.08 307.552 42.22 308.296 43.096C309.064 43.996 310.06 45.196 310.912 46.012L312.172 44.596C311.032 43.564 310 42.484 309.232 41.644C308.536 40.888 307.576 39.652 306.76 38.848C305.884 37.996 305.104 38.08 304.264 39.028C303.52 39.892 302.596 41.14 302.032 41.704C301.672 42.1 301.384 42.364 301.024 42.64ZM309.184 37.732L308.14 38.176C308.584 38.8 308.884 39.376 309.232 40.132L310.312 39.664C310.048 39.112 309.52 38.248 309.184 37.732ZM310.792 37.084L309.76 37.552C310.204 38.152 310.528 38.704 310.912 39.46L311.956 38.956C311.692 38.416 311.14 37.564 310.792 37.084ZM315.316 36.868L315.364 38.428C315.64 38.38 316.012 38.356 316.336 38.332C316.984 38.284 318.64 38.224 319.252 38.2C318.664 38.728 317.404 39.736 316.732 40.288C316.036 40.876 314.584 42.1 313.732 42.772L314.824 43.9C316.108 42.448 317.296 41.464 319.144 41.464C320.548 41.464 321.628 42.196 321.628 43.288C321.628 44.572 320.596 45.34 318.568 45.34C317.836 45.34 317.344 45.04 317.344 44.596C317.344 44.284 317.644 44.008 318.088 44.008C318.796 44.008 319.252 44.608 319.276 45.472L320.68 45.292C320.644 43.972 319.732 42.868 318.088 42.868C316.816 42.868 315.928 43.756 315.928 44.728C315.928 45.94 317.188 46.696 318.856 46.696C321.76 46.696 323.2 45.196 323.2 43.3C323.2 41.56 321.652 40.288 319.612 40.288C319.24 40.288 318.88 40.312 318.472 40.42C319.24 39.82 320.5 38.764 321.148 38.308C321.412 38.104 321.7 37.936 321.976 37.756L321.208 36.676C321.064 36.724 320.788 36.772 320.284 36.808C319.6 36.868 317.044 36.928 316.396 36.928C316.06 36.928 315.652 36.904 315.316 36.868Z" fill="#007979"/>
<defs>
<linearGradient id="paint0_linear_11_462" x1="167" y1="41.9412" x2="175" y2="41.9412" gradientUnits="userSpaceOnUse">
<stop stop-color="#2EA1AA"/>
<stop offset="1" stop-color="#06BC7A"/>
</linearGradient>
</defs>
</svg>
